<?xml version="1.0" encoding="UTF-8"?>
<svg version="1.1" xmlns="http://www.w3.org/2000/svg" width="559" height="315">
<path d="M0 0 C184.47 0 368.94 0 559 0 C559 103.95 559 207.9 559 315 C374.53 315 190.06 315 0 315 C0 211.05 0 107.1 0 0 Z " fill="#3D3125" transform="translate(0,0)"/>
<path d="M0 0 C0.87173859 -0.00807175 1.74347717 -0.01614349 2.64163208 -0.02445984 C4.48584004 -0.03828537 6.33007342 -0.04901437 8.17431641 -0.05688477 C10.99040232 -0.07411224 13.80531835 -0.1180128 16.62109375 -0.16210938 C18.41405388 -0.17223553 20.20702397 -0.18075187 22 -0.1875 C22.83973358 -0.20500809 23.67946716 -0.22251617 24.54464722 -0.24055481 C28.45585429 -0.22608472 30.70014976 0.00557626 34.20361328 1.88989258 C36.1328125 4.23828125 36.1328125 4.23828125 36.1328125 10.23828125 C41.0828125 10.23828125 46.0328125 10.23828125 51.1328125 10.23828125 C50.1328125 13.23828125 50.1328125 13.23828125 48.0078125 14.92578125 C44.22443092 17.968936 41.27060702 21.55221619 38.1328125 25.23828125 C37.6378125 25.73328125 37.6378125 25.73328125 37.1328125 26.23828125 C37.02285609 28.47071814 36.97686986 30.70635115 36.95703125 32.94140625 C36.93382106 34.32813998 36.90970325 35.71485876 36.88476562 37.1015625 C36.84972693 39.29160375 36.82035667 41.48110005 36.80688477 43.67138672 C36.79134836 45.78290385 36.75109453 47.89281629 36.70703125 50.00390625 C36.69244873 51.27008789 36.67786621 52.53626953 36.6628418 53.84082031 C36.01799817 57.97423528 35.38556385 59.58004865 32.1328125 62.23828125 C28.98259154 62.95599346 25.91482681 62.91539161 22.6953125 62.8671875 C21.7782251 62.86959946 20.8611377 62.87201141 19.91625977 62.87449646 C17.97961091 62.87351808 16.04293406 62.86012668 14.10644531 62.83520508 C11.14291334 62.80089818 8.18236351 62.8145452 5.21875 62.83398438 C3.33592481 62.82708578 1.45310732 62.81741328 -0.4296875 62.8046875 C-1.31519287 62.80964737 -2.20069824 62.81460724 -3.11303711 62.81971741 C-3.9406958 62.80388107 -4.76835449 62.78804474 -5.62109375 62.77172852 C-6.34627197 62.76552994 -7.0714502 62.75933136 -7.81860352 62.75294495 C-10.81038996 62.00132144 -12.00802586 60.66298677 -13.8671875 58.23828125 C-14.36166382 55.72740173 -14.36166382 55.72740173 -14.35302734 52.87475586 C-14.3591806 51.80362045 -14.36533386 50.73248505 -14.37167358 49.62889099 C-14.35011703 47.90219933 -14.35011703 47.90219933 -14.328125 46.140625 C-14.32720856 44.95481339 -14.32629211 43.76900177 -14.3253479 42.54725647 C-14.31930756 40.04147334 -14.30354879 37.53569757 -14.27880859 35.0300293 C-14.24229474 31.18706776 -14.23778927 27.34507002 -14.23828125 23.50195312 C-14.22845058 21.06900205 -14.2167938 18.63605753 -14.203125 16.203125 C-14.20089935 15.04997299 -14.19867371 13.89682098 -14.19638062 12.70872498 C-14.18362091 11.64074173 -14.17086121 10.57275848 -14.15771484 9.47241211 C-14.15009125 8.53183456 -14.14246765 7.59125702 -14.13461304 6.62217712 C-13.8671875 4.23828125 -13.8671875 4.23828125 -11.8671875 1.23828125 C-7.91945056 -0.07763106 -4.11804635 0.03605164 0 0 Z " fill="#7F7F7F" transform="translate(212.8671875,107.76171875)"/>
<path d="M0 0 C0.99 0 1.98 0 3 0 C3 0.66 3 1.32 3 2 C3.5775 2.2475 4.155 2.495 4.75 2.75 C7 4 7 4 8.6809082 6.04223633 C11.91427079 8.77182203 14.16452402 8.52768412 18.35546875 8.57421875 C19.40883171 8.59546562 19.40883171 8.59546562 20.48347473 8.61714172 C22.71830718 8.65896237 24.95233167 8.67427131 27.1875 8.6875 C29.43300571 8.71653154 31.67830593 8.75101367 33.92366028 8.78999329 C35.95311978 8.82276775 37.98280121 8.84080259 40.01245117 8.8581543 C43 9 43 9 44 10 C44.10103255 12.79993597 44.13970088 15.57468644 44.1328125 18.375 C44.13376923 19.21466309 44.13472595 20.05432617 44.13571167 20.91943359 C44.13639348 22.69824295 44.13453917 24.47705477 44.13037109 26.25585938 C44.12502283 28.98833776 44.13031605 31.72065176 44.13671875 34.453125 C44.13605797 36.1770837 44.13477681 37.90104229 44.1328125 39.625 C44.13483673 40.44790527 44.13686096 41.27081055 44.13894653 42.11865234 C44.11495054 47.88504946 44.11495054 47.88504946 43 49 C41.4093669 49.09854422 39.81438523 49.12798694 38.22070312 49.12939453 C36.69407043 49.13412277 36.69407043 49.13412277 35.13659668 49.13894653 C34.02933228 49.1369223 32.92206787 49.13489807 31.78125 49.1328125 C30.65303833 49.13376923 29.52482666 49.13472595 28.36242676 49.13571167 C25.97159774 49.13639368 23.58076689 49.13453797 21.18994141 49.13037109 C17.51590849 49.12502316 13.84199783 49.13031543 10.16796875 49.13671875 C7.85156223 49.13605797 5.53515578 49.13477682 3.21875 49.1328125 C2.1114856 49.13483673 1.00422119 49.13686096 -0.13659668 49.13894653 C-1.15435181 49.13579437 -2.17210693 49.13264221 -3.22070312 49.12939453 C-4.12147583 49.12859894 -5.02224854 49.12780334 -5.95031738 49.12698364 C-8 49 -8 49 -9 48 C-9.08865208 45.1156618 -9.11521296 42.25537842 -9.09765625 39.37109375 C-9.0962413 38.50686295 -9.09482635 37.64263214 -9.09336853 36.75221252 C-9.08775239 33.98060708 -9.07519719 31.2090812 -9.0625 28.4375 C-9.05748708 26.5631522 -9.05292381 24.68880315 -9.04882812 22.81445312 C-9.03777772 18.20960456 -9.0205023 13.60481579 -9 9 C-7.865625 8.855625 -6.73125 8.71125 -5.5625 8.5625 C-2.19222799 8.38828522 -2.19222799 8.38828522 -1 7 C-0.63239269 4.67182036 -0.29758419 2.3381615 0 0 Z " fill="#C6C6C6" transform="translate(273,132)"/>
<path d="M0 0 C1.4616156 -0.00472824 1.4616156 -0.00472824 2.95275879 -0.009552 C4.53558655 -0.00651566 4.53558655 -0.00651566 6.15039062 -0.00341797 C7.23042358 -0.00437469 8.31045654 -0.00533142 9.42321777 -0.00631714 C11.70971739 -0.0069985 13.99621893 -0.00514724 16.28271484 -0.00097656 C19.79203619 0.00437227 23.30122954 -0.00092305 26.81054688 -0.00732422 C29.02799508 -0.00666343 31.2454432 -0.00538225 33.46289062 -0.00341797 C34.51810913 -0.0054422 35.57332764 -0.00746643 36.66052246 -0.009552 C37.63493286 -0.00639984 38.60934326 -0.00324768 39.61328125 0 C40.47328735 0.00079559 41.33329346 0.00159119 42.21936035 0.00241089 C44.30664062 0.12939453 44.30664062 0.12939453 46.30664062 1.12939453 C46.30664062 13.66939453 46.30664062 26.20939453 46.30664062 39.12939453 C43.66664063 40.11939453 41.02664063 41.10939453 38.30664062 42.12939453 C37.97664063 44.76939453 37.64664063 47.40939453 37.30664062 50.12939453 C36.0335375 49.19497918 34.76325263 48.25672342 33.49414062 47.31689453 C32.78644531 46.79482422 32.07875 46.27275391 31.34960938 45.73486328 C29.30664062 44.12939453 29.30664062 44.12939453 28.13256836 42.55883789 C25.2721306 40.31951939 22.62677505 40.70661273 19.04882812 40.65283203 C18.3451712 40.6372525 17.64151428 40.62167297 16.91653442 40.60562134 C14.67158076 40.55812541 12.42693805 40.53034062 10.18164062 40.50439453 C7.92941998 40.46793686 5.67737694 40.42737024 3.42532349 40.38174438 C1.38704426 40.34204999 -0.65145716 40.31430913 -2.68994141 40.28710938 C-5.69335938 40.12939453 -5.69335938 40.12939453 -6.69335938 39.12939453 C-6.7819793 36.31776073 -6.80858293 33.53081198 -6.79101562 30.71923828 C-6.78960068 29.87720352 -6.78818573 29.03516876 -6.78672791 28.1676178 C-6.78111201 25.46734118 -6.76855686 22.76714626 -6.75585938 20.06689453 C-6.75084642 18.24072385 -6.74628316 16.41455187 -6.7421875 14.58837891 C-6.73113742 10.10201911 -6.71386217 5.61572069 -6.69335938 1.12939453 C-4.26475487 -0.08490772 -2.71337114 0.00251014 0 0 Z " fill="#A1A2A2" transform="translate(224.693359375,54.87060546875)"/>
<path d="M0 0 C5.53588533 -0.02464775 11.071739 -0.04283496 16.60766602 -0.05493164 C18.4924373 -0.05997244 20.37720465 -0.06680498 22.26196289 -0.07543945 C24.96501636 -0.08751617 27.66801831 -0.09323068 30.37109375 -0.09765625 C31.21900986 -0.10281754 32.06692596 -0.10797882 32.9405365 -0.11329651 C34.96071068 -0.11349195 36.98077934 -0.06206211 39 0 C40 1 40 1 40.12025452 3.05641174 C40.11803391 3.96020065 40.11581329 4.86398956 40.11352539 5.79516602 C40.11344986 6.81614883 40.11337433 7.83713165 40.11329651 8.88905334 C40.10813522 9.9994548 40.10297394 11.10985626 40.09765625 12.25390625 C40.0962413 13.38448959 40.09482635 14.51507294 40.09336853 15.67991638 C40.08775019 19.30747065 40.07519458 22.93496424 40.0625 26.5625 C40.05748736 29.01497307 40.05292405 31.4674471 40.04882812 33.91992188 C40.0377748 39.94663545 40.02101884 45.97331339 40 52 C34.48243524 52.0493521 28.96499829 52.08569662 23.44726562 52.10986328 C21.56931318 52.11993534 19.69137647 52.13359362 17.81347656 52.15087891 C15.1177991 52.17507453 12.42232854 52.18647083 9.7265625 52.1953125 C8.88380768 52.20563507 8.04105286 52.21595764 7.17276001 52.22659302 C5.11378753 52.22699144 3.05532065 52.12257588 1 52 C-1 50 -1 50 -1.125 46.375 C-1.08375 45.26125 -1.0425 44.1475 -1 43 C-3.64 43 -6.28 43 -9 43 C-7.8119916 40.19198013 -6.59164031 38.56714815 -4.45996094 36.30761719 C-1.58573272 32.88960903 -1.36155364 30.19063114 -1.328125 25.703125 C-1.31537537 25.02828064 -1.30262573 24.35343628 -1.28948975 23.65814209 C-1.2534145 21.52165862 -1.25048245 19.38676004 -1.25 17.25 C-1.22836566 15.099547 -1.19992365 12.94932963 -1.16766357 10.79901123 C-1.14186188 8.85864229 -1.13348053 6.91806503 -1.12597656 4.97753906 C-1 2 -1 2 0 0 Z " fill="#A2A3A2" transform="translate(291,71)"/>
<path d="M0 0 C0.91471573 -0.00619858 1.82943146 -0.01239716 2.77186584 -0.01878357 C4.70426368 -0.02587983 6.63672268 -0.02271109 8.5690918 -0.01000977 C11.52181907 0.00384368 14.47136913 -0.03020119 17.42382812 -0.06835938 C19.30338619 -0.06931073 21.18294821 -0.06745089 23.0625 -0.0625 C23.94284409 -0.07575821 24.82318817 -0.08901642 25.73020935 -0.10267639 C29.79609513 -0.04110167 32.10175516 0.27294529 35.65429688 2.37524414 C38.60614458 7.22243024 38.29398567 11.68059892 38.2265625 17.25390625 C38.22897446 18.38916748 38.23138641 19.52442871 38.23387146 20.6940918 C38.23289313 23.09134417 38.21950321 25.48861917 38.19458008 27.88574219 C38.16027681 31.5535157 38.17392288 35.21887936 38.19335938 38.88671875 C38.18646079 41.21745817 38.17678831 43.54819137 38.1640625 45.87890625 C38.1715023 47.52282349 38.1715023 47.52282349 38.17909241 49.19995117 C38.11205125 53.5373115 37.95646917 56.77659427 36.14990234 60.75317383 C32.29064273 63.49496847 28.82820048 63.30229512 24.1953125 63.265625 C23.28059677 63.2727803 22.36588104 63.27993561 21.42344666 63.28730774 C19.49104792 63.29508376 17.55856134 63.29007461 15.6262207 63.27319336 C12.67295034 63.25398944 9.72439999 63.29332482 6.77148438 63.33789062 C4.89192429 63.33818104 3.01235989 63.3350397 1.1328125 63.328125 C0.25246841 63.34340744 -0.62787567 63.35868988 -1.53489685 63.37443542 C-7.45224625 63.26228327 -7.45224625 63.26228327 -10.10379028 61.32022095 C-12.85331825 58.26129211 -13.40234375 56.72178213 -13.40234375 52.56640625 C-18.02234375 52.56640625 -22.64234375 52.56640625 -27.40234375 52.56640625 C-27.40234375 49.56640625 -27.40234375 49.56640625 -25.828125 47.91796875 C-25.13074219 47.34820312 -24.43335938 46.7784375 -23.71484375 46.19140625 C-22.26618815 44.99646999 -20.82955071 43.78687992 -19.40234375 42.56640625 C-18.11312012 41.50377563 -18.11312012 41.50377563 -16.79785156 40.41967773 C-13.85010996 36.9086447 -13.73031954 34.38009583 -13.8359375 30 C-13.82748558 28.92613792 -13.82748558 28.92613792 -13.81886292 27.83058167 C-13.80246459 25.55434884 -13.81791353 23.28007033 -13.83984375 21.00390625 C-13.85645819 18.7243574 -13.86551677 16.44608807 -13.85011292 14.16651917 C-13.84085723 12.75191332 -13.84991878 11.33703589 -13.87974548 9.92271423 C-13.8625945 6.83643022 -13.54486359 4.80692056 -11.96289062 2.13720703 C-8.07494126 -0.24790607 -4.48084759 -0.02518724 0 0 Z M-7.40234375 5.56640625 C-8.85586498 8.47344871 -8.49335401 11.01808402 -8.47265625 14.26171875 C-8.48124871 15.63152307 -8.4917277 17.00131661 -8.50390625 18.37109375 C-8.52052166 20.52425604 -8.52753843 22.67502283 -8.50195312 24.828125 C-8.3648514 38.31394941 -8.3648514 38.31394941 -12.95703125 43.43359375 C-13.59882324 44.00964355 -14.24061523 44.58569336 -14.90185547 45.17919922 C-15.64459717 45.8658667 -15.64459717 45.8658667 -16.40234375 46.56640625 C-16.40234375 47.22640625 -16.40234375 47.88640625 -16.40234375 48.56640625 C-13.76234375 48.56640625 -11.12234375 48.56640625 -8.40234375 48.56640625 C-8.44359375 49.68015625 -8.48484375 50.79390625 -8.52734375 51.94140625 C-8.81356234 55.6100665 -8.81356234 55.6100665 -6.40234375 57.56640625 C-3.46137638 57.74180061 -0.61581026 57.79773 2.32421875 57.76171875 C3.18703461 57.75888885 4.04985046 57.75605896 4.93881226 57.75314331 C7.70023345 57.74192958 10.46133275 57.71682309 13.22265625 57.69140625 C15.09244324 57.68137798 16.9622353 57.67225187 18.83203125 57.6640625 C23.42069734 57.64198637 28.00912218 57.60744859 32.59765625 57.56640625 C32.62292364 50.32154074 32.64048805 43.07668651 32.65258789 35.83178711 C32.65762981 33.36498592 32.66446316 30.89818773 32.6730957 28.43139648 C32.6851675 24.89436096 32.69088581 21.3573648 32.6953125 17.8203125 C32.70047379 16.70991104 32.70563507 15.59950958 32.71095276 14.45545959 C32.71102829 13.43447678 32.71110382 12.41349396 32.71118164 11.36157227 C32.71340225 10.45778336 32.71562286 9.55399445 32.71791077 8.62281799 C32.82666087 6.57387044 32.82666087 6.57387044 31.59765625 5.56640625 C28.71331805 5.47775417 25.85303467 5.45119329 22.96875 5.46875 C22.1045192 5.47016495 21.24028839 5.4715799 20.34986877 5.47303772 C17.57826333 5.47865386 14.80673745 5.49120906 12.03515625 5.50390625 C10.16080845 5.50891917 8.2864594 5.51348244 6.41210938 5.51757812 C1.80726081 5.52862853 -2.79752796 5.54590395 -7.40234375 5.56640625 Z " fill="#76736F" transform="translate(298.40234375,65.43359375)"/>
<path d="M0 0 C4 2 4 2 5.85546875 4.78515625 C8.64808149 8.91203122 11.37242883 11.9467012 16 14 C23.14209611 15.16834919 30.30019848 15.12492727 37.52026367 14.99047852 C38.2413884 14.97887695 38.96251312 14.96727539 39.70549011 14.95532227 C41.70662448 14.91242581 43.70696191 14.83616868 45.70703125 14.75805664 C49 15 49 15 51.41381836 15.90820312 C54.07730969 19.42071563 53.58969176 23.27441384 53.56640625 27.55859375 C53.57570412 28.96964134 53.57570412 28.96964134 53.58518982 30.40919495 C53.59229427 32.39884404 53.58910308 34.3885525 53.57641602 36.37817383 C53.56256527 39.42315168 53.59659275 42.46504825 53.63476562 45.50976562 C53.63571695 47.44270909 53.63385728 49.3756564 53.62890625 51.30859375 C53.64216446 52.21910995 53.65542267 53.12962616 53.66908264 54.06773376 C53.61118982 57.99823509 53.49014174 60.29195771 51.22070312 63.5703125 C46.17557691 65.80987126 41.30070027 65.59010632 35.83984375 65.56640625 C34.65781876 65.57260483 33.47579376 65.57880341 32.25794983 65.58518982 C29.76238834 65.59228577 27.26677949 65.58911801 24.77124023 65.57641602 C20.94752296 65.56253638 17.12624554 65.5966461 13.30273438 65.63476562 C10.87760357 65.63571667 8.45246969 65.6338588 6.02734375 65.62890625 C4.31006325 65.64879356 4.31006325 65.64879356 2.55809021 65.66908264 C-5.19072628 65.57786577 -5.19072628 65.57786577 -8.71850586 63.05883789 C-10.51069966 58.78099522 -10.57339502 55.02826458 -10.53125 50.4296875 C-10.5350769 49.51164337 -10.53890381 48.59359924 -10.54284668 47.6477356 C-10.54556204 45.71289977 -10.53822723 43.77802701 -10.52148438 41.84326172 C-10.50001993 38.87775306 -10.52132362 35.91465352 -10.546875 32.94921875 C-10.54423262 31.06770298 -10.5391095 29.18618871 -10.53125 27.3046875 C-10.53934692 26.4171579 -10.54744385 25.5296283 -10.55578613 24.61520386 C-10.46352212 18.58185948 -10.46352212 18.58185948 -8.34179688 15.91845703 C-6 15 -6 15 0 15 C0 10.05 0 5.1 0 0 Z M4 11 C3.855625 12.134375 3.71125 13.26875 3.5625 14.4375 C3 18 3 18 2 19 C-0.32817964 19.36760731 -2.6618385 19.70241581 -5 20 C-5.02464775 25.53588533 -5.04283496 31.071739 -5.05493164 36.60766602 C-5.05997244 38.4924373 -5.06680498 40.37720465 -5.07543945 42.26196289 C-5.08751617 44.96501636 -5.09323068 47.66801831 -5.09765625 50.37109375 C-5.10281754 51.21900986 -5.10797882 52.06692596 -5.11329651 52.9405365 C-5.11349195 54.96071068 -5.06206211 56.98077934 -5 59 C-3.35912255 60.64087745 -1.48168938 60.12739755 0.77929688 60.12939453 C1.797052 60.13254669 2.81480713 60.13569885 3.86340332 60.13894653 C4.97066772 60.1369223 6.07793213 60.13489807 7.21875 60.1328125 C8.9110675 60.13424759 8.9110675 60.13424759 10.63757324 60.13571167 C13.02840226 60.13639368 15.41923311 60.13453797 17.81005859 60.13037109 C21.48409151 60.12502316 25.15800217 60.13031543 28.83203125 60.13671875 C31.14843777 60.13605797 33.46484422 60.13477682 35.78125 60.1328125 C36.8885144 60.13483673 37.99577881 60.13686096 39.13659668 60.13894653 C40.66322937 60.13421829 40.66322937 60.13421829 42.22070312 60.12939453 C43.12147583 60.12859894 44.02224854 60.12780334 44.95031738 60.12698364 C46.99323069 60.22744606 46.99323069 60.22744606 48 59 C48.10103255 56.20006403 48.13970088 53.42531356 48.1328125 50.625 C48.13376923 49.78533691 48.13472595 48.94567383 48.13571167 48.08056641 C48.13639348 46.30175705 48.13453917 44.52294523 48.13037109 42.74414062 C48.12502283 40.01166224 48.13031605 37.27934824 48.13671875 34.546875 C48.13605797 32.8229163 48.13477681 31.09895771 48.1328125 29.375 C48.13483673 28.55209473 48.13686096 27.72918945 48.13894653 26.88134766 C48.4857546 23.13620134 48.4857546 23.13620134 47 20 C44.70574915 19.91453646 42.40912176 19.89182204 40.11328125 19.89453125 C38.68553185 19.88106611 37.25779646 19.86604131 35.83007812 19.84960938 C33.57608852 19.8268418 31.3236685 19.812438 29.06958008 19.82495117 C16.44324202 19.87641911 16.44324202 19.87641911 12.71240234 17.61083984 C11.10546875 15.94921875 11.10546875 15.94921875 9 13 C8.34 13 7.68 13 7 13 C7 12.34 7 11.68 7 11 C6.01 11 5.02 11 4 11 Z " fill="#716E6A" transform="translate(269,121)"/>
<path d="M0 0 C0.87173859 -0.00807175 1.74347717 -0.01614349 2.64163208 -0.02445984 C4.48584004 -0.03828537 6.33007342 -0.04901437 8.17431641 -0.05688477 C10.99040232 -0.07411224 13.80531835 -0.1180128 16.62109375 -0.16210938 C18.41405388 -0.17223553 20.20702397 -0.18075187 22 -0.1875 C22.83973358 -0.20500809 23.67946716 -0.22251617 24.54464722 -0.24055481 C28.45585429 -0.22608472 30.70014976 0.00557626 34.20361328 1.88989258 C36.1328125 4.23828125 36.1328125 4.23828125 36.1328125 10.23828125 C41.0828125 10.23828125 46.0328125 10.23828125 51.1328125 10.23828125 C50.1328125 13.23828125 50.1328125 13.23828125 48.0078125 14.92578125 C44.22443092 17.968936 41.27060702 21.55221619 38.1328125 25.23828125 C37.6378125 25.73328125 37.6378125 25.73328125 37.1328125 26.23828125 C37.02285609 28.47071814 36.97686986 30.70635115 36.95703125 32.94140625 C36.93382106 34.32813998 36.90970325 35.71485876 36.88476562 37.1015625 C36.84972693 39.29160375 36.82035667 41.48110005 36.80688477 43.67138672 C36.79134836 45.78290385 36.75109453 47.89281629 36.70703125 50.00390625 C36.69244873 51.27008789 36.67786621 52.53626953 36.6628418 53.84082031 C36.01799817 57.97423528 35.38556385 59.58004865 32.1328125 62.23828125 C28.98259154 62.95599346 25.91482681 62.91539161 22.6953125 62.8671875 C21.7782251 62.86959946 20.8611377 62.87201141 19.91625977 62.87449646 C17.97961091 62.87351808 16.04293406 62.86012668 14.10644531 62.83520508 C11.14291334 62.80089818 8.18236351 62.8145452 5.21875 62.83398438 C3.33592481 62.82708578 1.45310732 62.81741328 -0.4296875 62.8046875 C-1.31519287 62.80964737 -2.20069824 62.81460724 -3.11303711 62.81971741 C-3.9406958 62.80388107 -4.76835449 62.78804474 -5.62109375 62.77172852 C-6.34627197 62.76552994 -7.0714502 62.75933136 -7.81860352 62.75294495 C-10.81038996 62.00132144 -12.00802586 60.66298677 -13.8671875 58.23828125 C-14.36166382 55.72740173 -14.36166382 55.72740173 -14.35302734 52.87475586 C-14.3591806 51.80362045 -14.36533386 50.73248505 -14.37167358 49.62889099 C-14.35011703 47.90219933 -14.35011703 47.90219933 -14.328125 46.140625 C-14.32720856 44.95481339 -14.32629211 43.76900177 -14.3253479 42.54725647 C-14.31930756 40.04147334 -14.30354879 37.53569757 -14.27880859 35.0300293 C-14.24229474 31.18706776 -14.23778927 27.34507002 -14.23828125 23.50195312 C-14.22845058 21.06900205 -14.2167938 18.63605753 -14.203125 16.203125 C-14.20089935 15.04997299 -14.19867371 13.89682098 -14.19638062 12.70872498 C-14.18362091 11.64074173 -14.17086121 10.57275848 -14.15771484 9.47241211 C-14.15009125 8.53183456 -14.14246765 7.59125702 -14.13461304 6.62217712 C-13.8671875 4.23828125 -13.8671875 4.23828125 -11.8671875 1.23828125 C-7.91945056 -0.07763106 -4.11804635 0.03605164 0 0 Z M-8.8671875 6.23828125 C-8.96052455 7.83439107 -8.98464122 9.43461553 -8.98071289 11.03344727 C-8.98063736 12.05443008 -8.98056183 13.0754129 -8.98048401 14.12733459 C-8.97532272 15.23773605 -8.97016144 16.34813751 -8.96484375 17.4921875 C-8.9634288 18.62277084 -8.96201385 19.75335419 -8.96055603 20.91819763 C-8.95493769 24.5457519 -8.94238208 28.17324549 -8.9296875 31.80078125 C-8.92467486 34.25325432 -8.92011155 36.70572835 -8.91601562 39.15820312 C-8.9058112 45.18493829 -8.88623936 51.21154147 -8.8671875 57.23828125 C4.3328125 57.23828125 17.5328125 57.23828125 31.1328125 57.23828125 C31.18469152 46.69317917 31.18469152 46.69317917 31.16040039 36.14819336 C31.26843004 24.10266371 31.26843004 24.10266371 35.69140625 19.6796875 C37.63452148 18.17407227 37.63452148 18.17407227 39.1328125 17.23828125 C38.6378125 15.75328125 38.6378125 15.75328125 38.1328125 14.23828125 C36.4828125 14.23828125 34.8328125 14.23828125 33.1328125 14.23828125 C32.1428125 11.26828125 31.1528125 8.29828125 30.1328125 5.23828125 C24.73934262 5.21363276 19.34590525 5.19544594 13.95239258 5.18334961 C12.11612375 5.17830894 10.27985896 5.17147648 8.44360352 5.1628418 C5.81004849 5.15076453 3.17654634 5.14505044 0.54296875 5.140625 C-0.28307358 5.13546371 -1.10911591 5.13030243 -1.96018982 5.12498474 C-5.71820882 4.75738399 -5.71820882 4.75738399 -8.8671875 6.23828125 Z " fill="#807E7A" transform="translate(212.8671875,107.76171875)"/>
<path d="M0 0 C1.632006 -0.01891296 1.632006 -0.01891296 3.29698181 -0.03820801 C4.4720076 -0.03011108 5.64703339 -0.02201416 6.85766602 -0.01367188 C8.06471695 -0.01749878 9.27176788 -0.02132568 10.51539612 -0.02526855 C13.07000562 -0.02799256 15.62464279 -0.02059745 18.17919922 -0.00390625 C22.09283631 0.01747576 26.00463349 -0.00368412 29.91821289 -0.02929688 C32.39803466 -0.02665332 34.87785528 -0.02152778 37.35766602 -0.01367188 C38.53066757 -0.0217688 39.70366913 -0.02986572 40.91221619 -0.03820801 C42.00337234 -0.02559937 43.0945285 -0.01299072 44.21875 0 C45.17788803 0.00318237 46.13702606 0.00636475 47.12522888 0.00964355 C50.45679253 0.67355894 51.64020689 1.83397316 53.67407227 4.51757812 C54.18873596 6.56616211 54.18873596 6.56616211 54.20751953 8.76367188 C54.22335587 9.59133057 54.2391922 10.41898926 54.25550842 11.27172852 C54.25054855 12.15723389 54.24558868 13.04273926 54.24047852 13.95507812 C54.24977638 15.33070923 54.24977638 15.33070923 54.25926208 16.73413086 C54.26635768 18.67072489 54.26319076 20.60737995 54.25048828 22.54394531 C54.23661872 25.50765099 54.27069997 28.46820147 54.30883789 31.43164062 C54.30978907 33.3144539 54.30793033 35.19727112 54.30297852 37.08007812 C54.31623672 37.9655835 54.32949493 38.85108887 54.34315491 39.76342773 C54.25075688 45.86518713 54.25075688 45.86518713 51.38476562 49.10742188 C48.67407227 50.51757812 48.67407227 50.51757812 44.67407227 50.51757812 C44.67407227 55.13757813 44.67407227 59.75757813 44.67407227 64.51757812 C40.9444001 62.65274204 38.2049529 60.69689229 34.98657227 58.08007812 C34.01333008 57.29761719 33.04008789 56.51515625 32.03735352 55.70898438 C29.67407227 53.51757812 29.67407227 53.51757812 28.67407227 50.51757812 C27.69535156 50.53852539 26.71663086 50.55947266 25.70825195 50.58105469 C22.07054322 50.65355776 18.4328981 50.69941445 14.79467773 50.73730469 C13.22132623 50.75739692 11.64804918 50.78467612 10.07495117 50.81933594 C7.81092955 50.86796306 5.54789654 50.89056948 3.28344727 50.90820312 C2.58225769 50.92884827 1.88106812 50.94949341 1.15863037 50.97076416 C-1.9717182 50.97219629 -4.05512546 50.67649495 -6.77050781 49.08300781 C-9.13968426 45.17540994 -8.87895423 41.56773607 -8.82202148 37.08007812 C-8.82347672 36.16299072 -8.82493195 35.24590332 -8.82643127 34.30102539 C-8.82477319 32.36438822 -8.81322208 30.42773775 -8.79248047 28.49121094 C-8.7635303 25.52807606 -8.77187239 22.56673104 -8.78491211 19.60351562 C-8.77867435 17.72069444 -8.77028312 15.83787889 -8.75952148 13.95507812 C-8.76392494 12.62682007 -8.76392494 12.62682007 -8.76841736 11.27172852 C-8.75573318 10.44406982 -8.74304901 9.61641113 -8.72998047 8.76367188 C-8.72457748 8.03849365 -8.7191745 7.31331543 -8.71360779 6.56616211 C-7.71110939 1.26874701 -5.0938713 0.01691525 0 0 Z M-3.32592773 6.51757812 C-3.35057623 11.91104801 -3.36876304 17.30448538 -3.38085938 22.69799805 C-3.38590005 24.53426687 -3.3927325 26.37053167 -3.40136719 28.20678711 C-3.41344446 30.84034214 -3.41915854 33.47384429 -3.42358398 36.10742188 C-3.42874527 36.9334642 -3.43390656 37.75950653 -3.43922424 38.61058044 C-3.43941978 40.5799418 -3.38796925 42.54919426 -3.32592773 44.51757812 C-2.22063058 45.85343046 -2.22063058 45.85343046 0.56640625 45.58007812 C1.83814697 45.55945313 3.1098877 45.53882813 4.42016602 45.51757812 C5.82967135 45.51641791 7.23918063 45.51780711 8.64868164 45.52148438 C10.86828497 45.52587142 13.08368644 45.51823061 15.30273438 45.46630859 C23.34539573 45.29408886 29.35438888 45.36038062 35.64672852 51.08007812 C37.00575947 52.54402324 38.35387655 54.01851718 39.67407227 55.51757812 C40.00407227 55.51757812 40.33407227 55.51757812 40.67407227 55.51757812 C41.00407227 52.87757812 41.33407227 50.23757812 41.67407227 47.51757812 C44.31407227 46.52757812 46.95407227 45.53757813 49.67407227 44.51757812 C49.67407227 31.97757813 49.67407227 19.43757813 49.67407227 6.51757812 C47.24546777 5.30327587 45.69408403 5.39069374 42.98071289 5.38818359 C42.00630249 5.38503143 41.03189209 5.38187927 40.0279541 5.37863159 C38.9727356 5.38065582 37.91751709 5.38268005 36.83032227 5.38476562 C35.75028931 5.3838089 34.67025635 5.38285217 33.55749512 5.38186646 C31.2709955 5.38118509 28.98449396 5.38303635 26.69799805 5.38720703 C23.1886767 5.39255587 19.67948336 5.38726054 16.17016602 5.38085938 C13.95271782 5.38152016 11.73526969 5.38280134 9.51782227 5.38476562 C7.93499451 5.38172928 7.93499451 5.38172928 6.32019043 5.37863159 C4.85857483 5.38335983 4.85857483 5.38335983 3.36743164 5.38818359 C2.50742554 5.38897919 1.64741943 5.38977478 0.76135254 5.39059448 C-1.38618933 5.38434453 -1.38618933 5.38434453 -3.32592773 6.51757812 Z " fill="#7D7975" transform="translate(221.325927734375,49.482421875)"/>
<path d="M0 0 C2.97 0 5.94 0 9 0 C8.23180192 5.68087224 6.6519485 11.06994535 5.0625 16.5625 C4.79759766 17.49513672 4.53269531 18.42777344 4.25976562 19.38867188 C3.0228675 23.69479613 1.71394251 27.85547595 0 32 C-2.97 32 -5.94 32 -9 32 C-11.475 23.585 -11.475 23.585 -14 15 C-15.79528426 20.69807613 -17.35459949 26.06231535 -18 32 C-21.3 32 -24.6 32 -28 32 C-28.33773438 30.74703125 -28.67546875 29.4940625 -29.0234375 28.203125 C-29.47373798 26.55202322 -29.92427101 24.90098485 -30.375 23.25 C-30.59671875 22.425 -30.8184375 21.6 -31.046875 20.75 C-31.26601563 19.95078125 -31.48515625 19.1515625 -31.7109375 18.328125 C-31.90993652 17.5949707 -32.10893555 16.86181641 -32.31396484 16.10644531 C-33.0197381 13.9393949 -33.97660027 12.03199823 -35 10 C-35.4140625 7.640625 -35.4140625 7.640625 -35.625 5.25 C-35.69976562 4.45078125 -35.77453125 3.6515625 -35.8515625 2.828125 C-35.90054687 2.22484375 -35.94953125 1.6215625 -36 1 C-33.36 1 -30.72 1 -28 1 C-27.32635339 3.08108685 -26.66133202 5.1649671 -26 7.25 C-25.62875 8.41015625 -25.2575 9.5703125 -24.875 10.765625 C-24 14 -24 14 -24 18 C-23.34 18 -22.68 18 -22 18 C-21.896875 17.236875 -21.79375 16.47375 -21.6875 15.6875 C-20.75866958 10.70559136 -19.37883557 5.87362005 -18 1 C-15.03 1 -12.06 1 -9 1 C-8.49487756 2.60256108 -7.99608373 4.20711792 -7.5 5.8125 C-7.2215625 6.70582031 -6.943125 7.59914062 -6.65625 8.51953125 C-6 11 -6 11 -6 14 C-5.01 14 -4.02 14 -3 14 C-1.43098141 7.01466204 -1.43098141 7.01466204 0 0 Z " fill="#EFEDE9" transform="translate(327,208)"/>
<path d="M0 0 C4.1059931 2.161049 8.18436008 4.93994093 9.96875 9.3125 C10.37764328 14.00953051 10.25857627 18.61087379 9.96875 23.3125 C8.97875 23.3125 7.98875 23.3125 6.96875 23.3125 C6.72125 23.910625 6.47375 24.50875 6.21875 25.125 C4.19298998 28.67008004 1.78880844 30.03914719 -2.03125 31.3125 C-6.56548808 31.88288982 -11.05351355 32.3404961 -15.203125 30.18359375 C-19.52191088 26.64920274 -22.3239648 22.802655 -23.44921875 17.25 C-24.0138501 11.11362915 -21.78318013 7.80041534 -17.953125 3.16015625 C-13.02855215 -1.57424 -6.40298061 -2.16716267 0 0 Z " fill="#F0EEE9" transform="translate(271.03125,208.6875)"/>
<path d="M0 0 C0 10.56 0 21.12 0 32 C-2.64 32 -5.28 32 -8 32 C-8.33 27.05 -8.66 22.1 -9 17 C-9.33 17.99 -9.66 18.98 -10 20 C-10.66 20 -11.32 20 -12 20 C-12.66 22.31 -13.32 24.62 -14 27 C-15.828125 26.77734375 -15.828125 26.77734375 -18 26 C-19.484375 24.00390625 -19.484375 24.00390625 -20.75 21.5625 C-21.17796875 20.75941406 -21.6059375 19.95632812 -22.046875 19.12890625 C-23 17 -23 17 -23 15 C-23.66 15 -24.32 15 -25 15 C-25 20.28 -25 25.56 -25 31 C-27.31 31 -29.62 31 -32 31 C-32 21.1 -32 11.2 -32 1 C-24 1 -24 1 -21.94140625 2.828125 C-21.48636719 3.62734375 -21.03132813 4.4265625 -20.5625 5.25 C-20.08941406 6.03890625 -19.61632812 6.8278125 -19.12890625 7.640625 C-18.10584759 9.77878221 -17.46214541 11.68396093 -17 14 C-16.34 14 -15.68 14 -15 14 C-14.773125 13.175 -14.54625 12.35 -14.3125 11.5 C-13.27903942 8.74410513 -12.24539626 6.21814041 -10.875 3.625 C-10.52179688 2.93664062 -10.16859375 2.24828125 -9.8046875 1.5390625 C-8 0 -8 0 0 0 Z " fill="#EEEDE8" transform="translate(134,208)"/>
<path d="M0 0 C2.701875 -0.061875 5.40375 -0.12375 8.1875 -0.1875 C9.02949951 -0.21481201 9.87149902 -0.24212402 10.73901367 -0.27026367 C15.35197449 -0.32125682 18.23969258 0.05087407 22 3 C22.59039062 3.45375 23.18078125 3.9075 23.7890625 4.375 C25.46561786 6.62482913 25.39981618 8.22058793 25.375 11 C25.38273437 11.86625 25.39046875 12.7325 25.3984375 13.625 C24.92993511 16.41764172 24.25130406 17.3307404 22 19 C21.34 19 20.68 19 20 19 C20.34933594 19.68707031 20.69867188 20.37414062 21.05859375 21.08203125 C21.74115234 22.43361328 21.74115234 22.43361328 22.4375 23.8125 C22.88996094 24.70582031 23.34242188 25.59914062 23.80859375 26.51953125 C25 29 25 29 26 32 C20.91860085 32.70088264 20.91860085 32.70088264 18 32 C15.44983536 29.66323826 13.61749942 27.05119209 12 24 C12 23.34 12 22.68 12 22 C10.68 22 9.36 22 8 22 C8 25.3 8 28.6 8 32 C5.36 32 2.72 32 0 32 C0 21.44 0 10.88 0 0 Z " fill="#EEEBE7" transform="translate(212,208)"/>
<path d="M0 0 C2.64 0 5.28 0 8 0 C10.2421875 2.30078125 10.2421875 2.30078125 11.875 5.3125 C12.42929687 6.29863281 12.98359375 7.28476563 13.5546875 8.30078125 C14.03164063 9.19152344 14.50859375 10.08226562 15 11 C15.99 12.485 15.99 12.485 17 14 C17.33 9.38 17.66 4.76 18 0 C20.64 0 23.28 0 26 0 C26 10.56 26 21.12 26 32 C19 32 19 32 17.28735352 30.53125 C16.90506592 29.8609375 16.52277832 29.190625 16.12890625 28.5 C15.48598633 27.4171875 15.48598633 27.4171875 14.83007812 26.3125 C14.41177734 25.549375 13.99347656 24.78625 13.5625 24 C13.11712891 23.236875 12.67175781 22.47375 12.21289062 21.6875 C11.11868055 19.80498805 10.05618414 17.90410662 9 16 C8.67 21.28 8.34 26.56 8 32 C5.36 32 2.72 32 0 32 C0 21.44 0 10.88 0 0 Z " fill="#ECEAE6" transform="translate(370,208)"/>
<path d="M0 0 C0 0.66 0 1.32 0 2 C0.8353125 2.12375 0.8353125 2.12375 1.6875 2.25 C4.76188846 3.24709896 6.66242952 4.79229454 9 7 C9 7.99 9 8.98 9 10 C8.34 10 7.68 10 7 10 C7 10.66 7 11.32 7 12 C4.1875 12.1875 4.1875 12.1875 1 12 C0.30197266 11.24396484 0.30197266 11.24396484 -0.41015625 10.47265625 C-1.91182463 8.76523947 -1.91182463 8.76523947 -4.2265625 8.890625 C-5.01804688 9.00921875 -5.80953125 9.1278125 -6.625 9.25 C-7.42164063 9.35828125 -8.21828125 9.4665625 -9.0390625 9.578125 C-10.99404345 9.81318814 -10.99404345 9.81318814 -12 11 C-12.09858603 12.4555937 -12.12972143 13.91607919 -12.125 15.375 C-12.12757813 16.16648438 -12.13015625 16.95796875 -12.1328125 17.7734375 C-12.08617666 20.17343496 -12.08617666 20.17343496 -11 23 C-4.93949386 24.0812391 -4.93949386 24.0812391 1 23 C1 22.34 1 21.68 1 21 C3.76276177 21.52268466 6.3260876 22.10869587 9 23 C7.43989422 27.21228561 4.5154607 29.34546845 1 32 C-1.88211302 32.96070434 -3.69850044 33.10581883 -6.6875 33.0625 C-7.89986328 33.04896484 -7.89986328 33.04896484 -9.13671875 33.03515625 C-9.75160156 33.02355469 -10.36648437 33.01195312 -11 33 C-11 32.34 -11 31.68 -11 31 C-11.8353125 30.9071875 -11.8353125 30.9071875 -12.6875 30.8125 C-16.7448378 29.38694888 -19.18323026 26.4001767 -21.3125 22.75 C-22.53812999 17.84748005 -23.23233797 13.37812378 -20.83203125 8.74609375 C-14.89352079 0.45660485 -9.89172869 -0.46773498 0 0 Z " fill="#E9E7E1" transform="translate(191,208)"/>
<path d="M0 0 C2.9916738 2.24375535 4.57201141 3.78187864 5.8125 7.3125 C5.874375 7.869375 5.93625 8.42625 6 9 C2.625 9.625 2.625 9.625 -1 10 C-1.66 9.34 -2.32 8.68 -3 8 C-5.57061311 7.35232207 -5.57061311 7.35232207 -8 7 C-8 8.65 -8 10.3 -8 12 C-6.75283203 12.25523437 -6.75283203 12.25523437 -5.48046875 12.515625 C-4.39378906 12.75796875 -3.30710937 13.0003125 -2.1875 13.25 C-0.56908203 13.59804687 -0.56908203 13.59804687 1.08203125 13.953125 C4.35723162 15.12816342 5.36793313 15.9714223 7 19 C7.4055137 22.78479457 7.51161444 25.09304713 5.625 28.4375 C4 30 4 30 2 30 C2 30.66 2 31.32 2 32 C-2.09685381 33.36561794 -5.72623998 33.76291914 -10 33 C-12.78192849 31.39874426 -15.05842221 29.56587933 -17 27 C-17 26.01 -17 25.02 -17 24 C-15.02 23.34 -13.04 22.68 -11 22 C-10.34 22.66 -9.68 23.32 -9 24 C-6.34462628 24.56520003 -3.70855287 24.73788198 -1 25 C-1.13349567 23.04326495 -1.13349567 23.04326495 -2 21 C-4.14025205 19.78214341 -4.14025205 19.78214341 -6.75 19 C-14.10448974 16.28157829 -14.10448974 16.28157829 -17 13 C-17.73803365 9.14582429 -17.35907513 7.56426092 -15.25 4.25 C-10.7974936 -0.2025064 -6.13127098 -1.081989 0 0 Z " fill="#EFEDE9" transform="translate(426,208)"/>
<path d="M0 0 C3.2074725 1.60373625 4.61979844 2.37616015 6.9453125 4.78515625 C7.72455078 5.58083008 7.72455078 5.58083008 8.51953125 6.39257812 C9.04933594 6.94365234 9.57914062 7.49472656 10.125 8.0625 C15.19914977 13.30092081 17.32108062 15.09767884 24.7578125 15.31640625 C25.75238968 15.3475779 25.75238968 15.3475779 26.76705933 15.37937927 C28.88626694 15.44479231 31.005599 15.50372105 33.125 15.5625 C34.56121081 15.60569309 35.99740902 15.64930764 37.43359375 15.69335938 C40.95559594 15.80046499 44.47773825 15.90175575 48 16 C48 16.33 48 16.66 48 17 C43.46534343 17.19944358 38.93329598 17.34368374 34.39526367 17.43945312 C32.85574834 17.47941124 31.3165313 17.53380258 29.77807617 17.60351562 C15.36917224 18.23954644 15.36917224 18.23954644 9.43359375 13.09375 C6 9.49166371 6 9.49166371 6 7 C4.68 6.67 3.36 6.34 2 6 C2 9.63 2 13.26 2 17 C-0.05078125 17.48828125 -2.1015625 17.9765625 -4.15234375 18.46484375 C-5.99969898 18.83887569 -5.99969898 18.83887569 -7 20 C-7.16023562 22.88252645 -7.25954029 25.74378527 -7.31640625 28.62890625 C-7.33718735 29.49313705 -7.35796844 30.35736786 -7.37937927 31.24778748 C-7.44497114 34.01927445 -7.50380418 36.79085921 -7.5625 39.5625 C-7.60567608 41.43685923 -7.64929006 43.31120843 -7.69335938 45.18554688 C-7.80066227 49.79026336 -7.90190215 54.39507858 -8 59 C-7.34 59 -6.68 59 -6 59 C-5.67 59.66 -5.34 60.32 -5 61 C2.36894815 61.05058145 9.73785178 61.08568333 17.10693359 61.10986328 C19.61541415 61.11994011 22.12388292 61.13360179 24.63232422 61.15087891 C28.23147488 61.17505337 31.83047067 61.18646612 35.4296875 61.1953125 C37.12035843 61.21079636 37.12035843 61.21079636 38.84518433 61.22659302 C39.88611237 61.22674408 40.92704041 61.22689514 41.99951172 61.22705078 C43.37851151 61.23371262 43.37851151 61.23371262 44.78536987 61.24050903 C47.20611776 61.21163592 47.20611776 61.21163592 49 59 C49.24606015 55.99113276 49.37380782 53.06782248 49.4140625 50.0546875 C49.43342865 49.1696756 49.4527948 48.2846637 49.4727478 47.37283325 C49.53262723 44.54032084 49.57896213 41.70776797 49.625 38.875 C49.66317211 36.95701332 49.70222338 35.03904393 49.7421875 33.12109375 C49.83833555 28.41420252 49.92233542 23.70723104 50 19 C50.66 19 51.32 19 52 19 C52.09890033 24.90815343 52.17148371 30.81582472 52.21972656 36.72460938 C52.23983805 38.73446038 52.26713115 40.74425291 52.30175781 42.75390625 C52.35029634 45.64337596 52.37297322 48.53207191 52.390625 51.421875 C52.41127014 52.31992859 52.43191528 53.21798218 52.45318604 54.14324951 C52.45348816 54.98381897 52.45379028 55.82438843 52.45410156 56.69042969 C52.46298401 57.42767273 52.47186646 58.16491577 52.48101807 58.92449951 C51.77865503 61.955061 50.44507484 63.12949736 48 65 C45.49584961 65.5146637 45.49584961 65.5146637 42.65234375 65.53344727 C41.58443604 65.5492836 40.51652832 65.56511993 39.41625977 65.58143616 C38.26826904 65.57647629 37.12027832 65.57151642 35.9375 65.56640625 C34.16234009 65.57570412 34.16234009 65.57570412 32.35131836 65.58518982 C29.84978051 65.59229224 27.34819543 65.58910673 24.84667969 65.57641602 C21.01409165 65.56255098 17.18394424 65.596619 13.3515625 65.63476562 C10.9218744 65.63571679 8.49218324 65.63385816 6.0625 65.62890625 C4.91450928 65.64216446 3.76651855 65.65542267 2.58374023 65.66908264 C-5.19009734 65.57784782 -5.19009734 65.57784782 -8.72070312 63.05883789 C-10.50984351 58.78094859 -10.57338607 55.02728805 -10.53125 50.4296875 C-10.5350769 49.51164337 -10.53890381 48.59359924 -10.54284668 47.6477356 C-10.54556204 45.71289977 -10.53822723 43.77802701 -10.52148438 41.84326172 C-10.50001993 38.87775306 -10.52132362 35.91465352 -10.546875 32.94921875 C-10.54423262 31.06770298 -10.5391095 29.18618871 -10.53125 27.3046875 C-10.53934692 26.4171579 -10.54744385 25.5296283 -10.55578613 24.61520386 C-10.46352212 18.58185948 -10.46352212 18.58185948 -8.34179688 15.91845703 C-6 15 -6 15 0 15 C0 10.05 0 5.1 0 0 Z " fill="#8A8884" transform="translate(269,121)"/>
<path d="M0 0 C3.09868415 -0.29140931 5.99425521 -0.39571098 9.09375 -0.36328125 C9.9962146 -0.36377975 10.8986792 -0.36427826 11.82849121 -0.36479187 C13.738385 -0.36244919 15.64828175 -0.35270927 17.55810547 -0.33618164 C20.48823536 -0.3125947 23.41745562 -0.31561839 26.34765625 -0.32226562 C28.20052628 -0.31668891 30.05339246 -0.30957908 31.90625 -0.30078125 C32.78647827 -0.30169266 33.66670654 -0.30260406 34.5736084 -0.30354309 C40.76898353 -0.23101647 40.76898353 -0.23101647 43 2 C43.25396729 4.23913574 43.25396729 4.23913574 43.25878906 7.06054688 C43.26509338 8.11504028 43.27139771 9.16953369 43.27789307 10.25598145 C43.2738446 11.39869507 43.26979614 12.54140869 43.265625 13.71875 C43.26849518 15.47197571 43.26849518 15.47197571 43.27142334 17.26062012 C43.27278626 19.73543513 43.26908241 22.21025726 43.26074219 24.68505859 C43.25004446 28.48421205 43.26063418 32.28289259 43.2734375 36.08203125 C43.27211592 38.48177188 43.26955357 40.88151222 43.265625 43.28125 C43.26967346 44.42396362 43.27372192 45.56667725 43.27789307 46.74401855 C43.27158875 47.79851196 43.26528442 48.85300537 43.25878906 49.93945312 C43.25719788 50.8705188 43.25560669 51.80158447 43.25396729 52.76086426 C43 55 43 55 41 57 C38.02241941 57.23688518 35.14103563 57.35240194 32.16015625 57.37109375 C31.28225937 57.38012222 30.40436249 57.3891507 29.49986267 57.39845276 C27.64130067 57.4129735 25.78268733 57.42184652 23.92407227 57.42553711 C21.07676358 57.43744037 18.23161696 57.48661145 15.38476562 57.53710938 C13.58073977 57.54657247 11.77670057 57.55380805 9.97265625 57.55859375 C9.11946304 57.57812607 8.26626984 57.59765839 7.38722229 57.61778259 C5.14919162 57.60065463 3.1730807 57.53515098 1 57 C-1.88973093 53.7959967 -2 52.36215435 -2 48 C-3.65 47.67 -5.3 47.34 -7 47 C-7 46.67 -7 46.34 -7 46 C-5.02 46 -3.04 46 -1 46 C0.485 49.465 0.485 49.465 2 53 C21.305 53.495 21.305 53.495 41 54 C40.67 37.17 40.34 20.34 40 3 C20.695 2.505 20.695 2.505 1 2 C0.94809637 12.50005861 0.94809637 12.50005861 0.97241211 23 C0.86727438 35.00449175 0.86727438 35.00449175 -3.43359375 40.0625 C-6.51531729 43 -6.51531729 43 -9 43 C-9 43.99 -9 44.98 -9 46 C-9.99 46 -10.98 46 -12 46 C-10.62613682 42.76423044 -9.22100836 41.32721866 -6.42578125 39.265625 C-2.22208372 35.18284232 -2.22756205 30.83789921 -2.13113403 25.3104248 C-2.12688826 23.12283068 -2.15495043 20.93733108 -2.1875 18.75 C-2.19351754 16.54517479 -2.1897198 14.34083873 -2.17634583 12.13604736 C-2.16836762 10.14635074 -2.18735679 8.15660016 -2.20776367 6.16699219 C-2 3 -2 3 0 0 Z " fill="#4D4D4C" transform="translate(290,69)"/>
<path d="M0 0 C1.28753174 0.00607269 1.28753174 0.00607269 2.60107422 0.01226807 C3.92147705 0.00939789 3.92147705 0.00939789 5.26855469 0.00646973 C7.13135056 0.00510755 8.99415591 0.00880625 10.85693359 0.01715088 C13.71457158 0.02785 16.57158088 0.01725675 19.42919922 0.00445557 C21.23649228 0.00577716 23.04378495 0.00833954 24.85107422 0.01226807 C25.70942871 0.0082196 26.5677832 0.00417114 27.45214844 0 C33.49615677 0.04797562 33.49615677 0.04797562 35.72607422 2.27789307 C35.85107422 5.40289307 35.85107422 5.40289307 35.72607422 8.27789307 C38.20107422 8.77289307 38.20107422 8.77289307 40.72607422 9.27789307 C40.72607422 9.60789307 40.72607422 9.93789307 40.72607422 10.27789307 C38.35107422 10.40289307 38.35107422 10.40289307 35.72607422 10.27789307 C33.72607422 8.27789307 33.72607422 8.27789307 32.72607422 3.27789307 C20.18607422 3.27789307 7.64607422 3.27789307 -5.27392578 3.27789307 C-5.60392578 20.10789307 -5.93392578 36.93789307 -6.27392578 54.27789307 C6.92607422 54.27789307 20.12607422 54.27789307 33.72607422 54.27789307 C33.41076943 43.77619508 33.41076943 43.77619508 33.00537109 33.27789307 C32.73964669 22.79647228 32.73964669 22.79647228 35.50732422 18.53570557 C37.69482422 16.40289307 37.69482422 16.40289307 39.89599609 14.72320557 C42.01678131 13.31995815 42.01678131 13.31995815 42.72607422 10.27789307 C43.71607422 10.27789307 44.70607422 10.27789307 45.72607422 10.27789307 C44.64846678 13.94175835 43.8882801 15.16405706 40.68701172 17.41070557 C36.71492268 21.28250742 37.04540717 26.0018094 36.95266724 31.20010376 C36.94071601 33.4765174 36.95633019 35.75155068 36.97607422 38.02789307 C36.97463228 40.32106273 36.96479964 42.61377813 36.94476318 44.90686035 C36.93455222 46.32914792 36.93630369 47.75158225 36.95123291 49.17382812 C36.94739826 54.05656903 36.94739826 54.05656903 34.72607422 56.27789307 C31.74790128 56.46573979 28.86434278 56.53338384 25.88623047 56.50836182 C25.00833359 56.50790359 24.13043671 56.50744537 23.22593689 56.50697327 C21.36732636 56.50394932 19.50871841 56.49605879 17.65014648 56.48370361 C14.80361963 56.46548934 11.95741879 56.46319363 9.11083984 56.46343994 C7.30680057 56.4585231 5.5027635 56.45269406 3.69873047 56.44586182 C2.84553726 56.44474899 1.99234406 56.44363617 1.11329651 56.44248962 C-2.2584167 56.4154027 -5.05368681 56.35130606 -8.27392578 55.27789307 C-8.32450543 47.76652898 -8.35960835 40.25520857 -8.38378906 32.74371338 C-8.39386616 30.18673054 -8.40752804 27.62975927 -8.42480469 25.07281494 C-8.44897795 21.40416615 -8.46039163 17.73566928 -8.46923828 14.06695557 C-8.47956085 12.91796783 -8.48988342 11.7689801 -8.5005188 10.58517456 C-8.50066986 9.52422577 -8.50082092 8.46327698 -8.50097656 7.37017822 C-8.50541779 6.43308014 -8.50985901 5.49598206 -8.51443481 4.53048706 C-7.96321967 -0.63216277 -4.32503264 0.03433088 0 0 Z " fill="#454646" transform="translate(210.27392578125,110.72210693359375)"/>
<path d="M0 0 C2.97 0 5.94 0 9 0 C8.23180192 5.68087224 6.6519485 11.06994535 5.0625 16.5625 C4.79759766 17.49513672 4.53269531 18.42777344 4.25976562 19.38867188 C3.0228675 23.69479613 1.71394251 27.85547595 0 32 C-2.97 32 -5.94 32 -9 32 C-10.58264578 26.46073977 -11.4888148 21.7680147 -11 16 C-9.5 14 -9.5 14 -8 13 C-8.33 12.113125 -8.66 11.22625 -9 10.3125 C-9.91222143 7.29076653 -10.18330958 5.11626294 -10 2 C-11.32 2 -12.64 2 -14 2 C-14 2.66 -14 3.32 -14 4 C-16.5 5.625 -16.5 5.625 -19 7 C-18.67 5.02 -18.34 3.04 -18 1 C-15.03 1 -12.06 1 -9 1 C-8.49487756 2.60256108 -7.99608373 4.20711792 -7.5 5.8125 C-7.2215625 6.70582031 -6.943125 7.59914062 -6.65625 8.51953125 C-6 11 -6 11 -6 14 C-5.01 14 -4.02 14 -3 14 C-1.43098141 7.01466204 -1.43098141 7.01466204 0 0 Z " fill="#EEEDE8" transform="translate(327,208)"/>
<path d="M0 0 C1.55170898 -0.00945648 1.55170898 -0.00945648 3.13476562 -0.019104 C4.81602539 -0.01303131 4.81602539 -0.01303131 6.53125 -0.00683594 C7.67787109 -0.00874939 8.82449219 -0.01066284 10.00585938 -0.01263428 C12.43359598 -0.01399715 14.86133984 -0.01029361 17.2890625 -0.00195312 C21.01579073 0.00874469 24.74203686 -0.00184525 28.46875 -0.01464844 C30.82291774 -0.01332686 33.17708517 -0.01076451 35.53125 -0.00683594 C36.65208984 -0.0108844 37.77292969 -0.01493286 38.92773438 -0.019104 C39.96220703 -0.01279968 40.99667969 -0.00649536 42.0625 0 C43.43245117 0.00238678 43.43245117 0.00238678 44.83007812 0.00482178 C47.03125 0.25878906 47.03125 0.25878906 49.03125 2.25878906 C49.20678419 5.34403845 49.26247797 8.33843108 49.2265625 11.42285156 C49.2237326 12.33005951 49.22090271 13.23726746 49.21798706 14.17196655 C49.20677153 17.07604029 49.18166463 19.97980818 49.15625 22.88378906 C49.14622197 24.84993045 49.13709581 26.81607666 49.12890625 28.78222656 C49.10682772 33.60786565 49.07228865 38.43327546 49.03125 43.25878906 C46.72125 43.91878906 44.41125 44.57878906 42.03125 45.25878906 C41.70125 48.88878906 41.37125 52.51878906 41.03125 56.25878906 C37.55609574 54.52121193 36.025036 53.45804408 33.46875 50.75878906 C29.40569558 46.46448356 29.40569558 46.46448356 23.78491211 44.98754883 C22.47272705 44.97522217 21.16054199 44.96289551 19.80859375 44.95019531 C18.36913634 44.92504866 16.92968331 44.89965045 15.49023438 44.87402344 C13.22323616 44.84520879 10.95631353 44.8211865 8.68920898 44.80249023 C6.499451 44.78090341 4.31055554 44.7414875 2.12109375 44.70019531 C0.81003662 44.68674072 -0.50102051 44.67328613 -1.85180664 44.65942383 C-2.88039795 44.52721436 -3.90898926 44.39500488 -4.96875 44.25878906 C-7.57445381 40.35023335 -7.25645167 37.03815169 -7.234375 32.50488281 C-7.23628845 31.64822525 -7.2382019 30.79156769 -7.24017334 29.90895081 C-7.24153373 28.09920966 -7.23784747 26.2894587 -7.22949219 24.47973633 C-7.21877741 21.70339157 -7.22939904 18.92769196 -7.2421875 16.15136719 C-7.24086614 14.3942043 -7.23830422 12.63704181 -7.234375 10.87988281 C-7.23842346 10.04653915 -7.24247192 9.2131955 -7.24664307 8.354599 C-7.19419907 1.94105808 -6.53159188 0.01137958 0 0 Z M-4.96875 3.25878906 C-4.99339849 8.65225894 -5.01158531 14.04569632 -5.02368164 19.43920898 C-5.02872231 21.27547781 -5.03555477 23.1117426 -5.04418945 24.94799805 C-5.05626672 27.58155308 -5.06198081 30.21505523 -5.06640625 32.84863281 C-5.07156754 33.67467514 -5.07672882 34.50071747 -5.08204651 35.35179138 C-5.08224205 37.32115274 -5.03079152 39.2904052 -4.96875 41.25878906 C-3.86345285 42.5946414 -3.86345285 42.5946414 -1.07641602 42.32128906 C0.19532471 42.30066406 1.46706543 42.28003906 2.77734375 42.25878906 C4.18684908 42.25762885 5.59635836 42.25901805 7.00585938 42.26269531 C9.22546271 42.26708236 11.44086417 42.25944154 13.65991211 42.20751953 C21.70257347 42.0352998 27.71156662 42.10159156 34.00390625 47.82128906 C35.3629372 49.28523418 36.71105428 50.75972812 38.03125 52.25878906 C38.36125 52.25878906 38.69125 52.25878906 39.03125 52.25878906 C39.36125 49.61878906 39.69125 46.97878906 40.03125 44.25878906 C42.67125 43.26878906 45.31125 42.27878906 48.03125 41.25878906 C48.03125 28.71878906 48.03125 16.17878906 48.03125 3.25878906 C45.6026455 2.04448681 44.05126176 2.13190468 41.33789062 2.12939453 C40.36348022 2.12624237 39.38906982 2.12309021 38.38513184 2.11984253 C37.32991333 2.12186676 36.27469482 2.12389099 35.1875 2.12597656 C34.10746704 2.12501984 33.02743408 2.12406311 31.91467285 2.12307739 C29.62817324 2.12239603 27.34167169 2.12424729 25.05517578 2.12841797 C21.54585444 2.1337668 18.03666109 2.12847148 14.52734375 2.12207031 C12.30989555 2.1227311 10.09244743 2.12401228 7.875 2.12597656 C6.29217224 2.12294022 6.29217224 2.12294022 4.67736816 2.11984253 C3.21575256 2.12457077 3.21575256 2.12457077 1.72460938 2.12939453 C0.86460327 2.13019012 0.00459717 2.13098572 -0.88146973 2.13180542 C-3.02901159 2.12555547 -3.02901159 2.12555547 -4.96875 3.25878906 Z " fill="#4C4B4A" transform="translate(222.96875,52.7412109375)"/>
<path d="M0 0 C8 0 8 0 10.05859375 1.79296875 C10.51363281 2.58316406 10.96867187 3.37335938 11.4375 4.1875 C11.91058594 4.96480469 12.38367188 5.74210938 12.87109375 6.54296875 C14.01945062 9.0423337 14.58121843 11.28995373 15 14 C13.25 15.125 13.25 15.125 11 16 C9.68 15.34 8.36 14.68 7 14 C7 19.28 7 24.56 7 30 C4.69 30 2.38 30 0 30 C0 20.1 0 10.2 0 0 Z " fill="#F8F8F4" transform="translate(102,209)"/>
<path d="M0 0 C2.64 0 5.28 0 8 0 C8 10.56 8 21.12 8 32 C5.36 32 2.72 32 0 32 C0 21.44 0 10.88 0 0 Z " fill="#ECEAE5" transform="translate(148,208)"/>
<path d="M0 0 C0 0.66 0 1.32 0 2 C-1.65 2 -3.3 2 -5 2 C-4.94779297 3.46373047 -4.94779297 3.46373047 -4.89453125 4.95703125 C-4.86746094 6.22933594 -4.84039062 7.50164062 -4.8125 8.8125 C-4.76029297 10.70935547 -4.76029297 10.70935547 -4.70703125 12.64453125 C-5 16 -5 16 -6.03125 17.9375 C-9.12811914 19.6088262 -12.26748117 19.3120385 -15.6875 19.1875 C-16.7403418 19.16719727 -16.7403418 19.16719727 -17.81445312 19.14648438 C-19.54329829 19.11120182 -21.27174765 19.05739583 -23 19 C-23.0825 18.071875 -23.165 17.14375 -23.25 16.1875 C-23.72846525 13.05349992 -23.72846525 13.05349992 -25.44824219 11.3190918 C-29.39955387 9.27652224 -33.19704852 9.6314946 -37.578125 9.70703125 C-38.5046991 9.71127609 -39.43127319 9.71552094 -40.38592529 9.71989441 C-43.34091434 9.73666678 -46.29521761 9.77431645 -49.25 9.8125 C-51.25519847 9.8275487 -53.26040765 9.84123678 -55.265625 9.85351562 C-60.17734696 9.88656562 -65.08855726 9.93833818 -70 10 C-69.67 9.34 -69.34 8.68 -69 8 C-67.09323486 7.97812622 -67.09323486 7.97812622 -65.14794922 7.95581055 C-60.41768708 7.89770193 -55.6878947 7.82046952 -50.95800781 7.73754883 C-48.9134892 7.70435859 -46.86888026 7.67630837 -44.82421875 7.65356445 C-41.87981794 7.61991007 -38.93624046 7.56758834 -35.9921875 7.51171875 C-35.0825827 7.50532883 -34.17297791 7.4989389 -33.23580933 7.49235535 C-28.07357035 7.3735995 -24.51333275 6.7891747 -20 4 C-19.32453125 4.54269531 -18.6490625 5.08539063 -17.953125 5.64453125 C-17.06109375 6.35996094 -16.1690625 7.07539062 -15.25 7.8125 C-14.36828125 8.52019531 -13.4865625 9.22789063 -12.578125 9.95703125 C-10.41267212 11.67298861 -8.2103315 13.34225138 -6 15 C-6 10.38 -6 5.76 -6 1 C-2 0 -2 0 0 0 Z " fill="#403830" transform="translate(272,99)"/>
<path d="M0 0 C4.7994107 0.06856301 4.7994107 0.06856301 7.25 2.375 C8.43048146 6.42236499 8.59481321 9.14668114 8.125 13.375 C6.6875 15.875 6.6875 15.875 4.125 17.375 C1.05525468 17.85707192 -1.82330491 17.99882717 -4.875 17.375 C-7.79198718 15.19883496 -7.90174815 14.25654389 -8.75 10.5 C-9.12252039 6.61002746 -8.3324603 4.49408423 -5.875 1.375 C-4.21469118 -0.28530882 -2.27746403 0.08581749 0 0 Z " fill="#3A2F24" transform="translate(264.875,215.625)"/>
<path d="M0 0 C0.33 0.66 0.66 1.32 1 2 C5.62 2 10.24 2 15 2 C15.71614583 3.72526042 16.43229167 5.45052083 17.1484375 7.17578125 C18.06806692 9.26533932 18.06806692 9.26533932 20 12 C19.34 12 18.68 12 18 12 C18 12.66 18 13.32 18 14 C17.34 14.66 16.68 15.32 16 16 C16 16.99 16 17.98 16 19 C27.22 19 38.44 19 50 19 C49.505 20.485 49.505 20.485 49 22 C48.67 21.67 48.34 21.34 48 21 C45.72454375 21.01312434 43.44939159 21.08321009 41.17578125 21.17578125 C15.03927696 21.8345971 15.03927696 21.8345971 7.7722168 14.97338867 C5.28529956 12.10294 3.11744782 9.15448464 1 6 C0.34 5.67 -0.32 5.34 -1 5 C-1 9.95 -1 14.9 -1 20 C-2.65 20 -4.3 20 -6 20 C-4.68 19.67 -3.36 19.34 -2 19 C-2.33 13.72 -2.66 8.44 -3 3 C-2.34 3 -1.68 3 -1 3 C-0.67 2.01 -0.34 1.02 0 0 Z " fill="#403830" transform="translate(270,116)"/>
<path d="M0 0 C1.32 0.66 2.64 1.32 4 2 C4.0741205 7.35682133 4.12858776 12.71334462 4.16479492 18.07055664 C4.1798876 19.89320067 4.20036395 21.71580836 4.22631836 23.53833008 C4.26268103 26.157155 4.27972124 28.77550007 4.29296875 31.39453125 C4.30845261 32.21025101 4.32393646 33.02597076 4.33988953 33.8664093 C4.3415719 39.5133027 4.3415719 39.5133027 2.7963562 41.71504211 C0.39789969 43.43069049 -1.14536066 43.38048968 -4.08227539 43.38818359 C-5.11667252 43.39764008 -6.15106964 43.40709656 -7.21681213 43.4168396 C-8.33249069 43.41076691 -9.44816925 43.40469421 -10.59765625 43.3984375 C-12.31546547 43.40274277 -12.31546547 43.40274277 -14.06797791 43.40713501 C-16.48974095 43.40917741 -18.91152042 43.40363533 -21.33325195 43.39111328 C-25.05131683 43.37504832 -28.76829697 43.39096451 -32.48632812 43.41015625 C-34.83593991 43.40817414 -37.18555102 43.40433113 -39.53515625 43.3984375 C-41.21171043 43.40754654 -41.21171043 43.40754654 -42.9221344 43.4168396 C-43.95337936 43.40738312 -44.98462433 43.39792664 -46.04711914 43.38818359 C-47.41254601 43.38460342 -47.41254601 43.38460342 -48.80555725 43.38095093 C-49.52972336 43.25523712 -50.25388947 43.12952332 -51 43 C-53.58995441 39.11506838 -53.25225542 35.89432764 -53.1953125 31.39453125 C-53.19106766 30.13572395 -53.19106766 30.13572395 -53.18673706 28.85148621 C-53.17554385 26.17167897 -53.15044101 23.49220619 -53.125 20.8125 C-53.11496908 18.99544754 -53.10584343 17.17838983 -53.09765625 15.36132812 C-53.07560734 10.90742325 -53.04108351 6.45376833 -53 2 C-52.67 2 -52.34 2 -52 2 C-51.97494385 3.11560303 -51.9498877 4.23120605 -51.92407227 5.38061523 C-51.83016579 9.5049259 -51.72990486 13.6290615 -51.62768555 17.75317383 C-51.584273 19.5408927 -51.54260271 21.32865474 -51.50268555 23.11645508 C-51.4451354 25.68063391 -51.38139797 28.24459412 -51.31640625 30.80859375 C-51.29969376 31.6127623 -51.28298126 32.41693085 -51.26576233 33.24546814 C-51.50779304 36.92669998 -51.50779304 36.92669998 -50 40 C-48.40389018 40.09333705 -46.80366572 40.11745372 -45.20483398 40.11352539 C-43.67335976 40.11341209 -43.67335976 40.11341209 -42.11094666 40.11329651 C-41.0005452 40.10813522 -39.89014374 40.10297394 -38.74609375 40.09765625 C-37.61551041 40.0962413 -36.48492706 40.09482635 -35.32008362 40.09336853 C-31.69252935 40.08775019 -28.06503576 40.07519458 -24.4375 40.0625 C-21.98502693 40.05748736 -19.5325529 40.05292405 -17.08007812 40.04882812 C-11.05336455 40.0377748 -5.02668661 40.02101884 1 40 C1.02467759 34.62484067 1.04284928 29.24971415 1.05493164 23.87451172 C1.05996737 22.04507879 1.06679627 20.21564991 1.07543945 18.38623047 C1.08753824 15.76008102 1.09323583 13.13398468 1.09765625 10.5078125 C1.10281754 9.68693146 1.10797882 8.86605042 1.11329651 8.02029419 C1.22351874 3.87788156 1.22351874 3.87788156 0 0 Z " fill="#505050" transform="translate(315,140)"/>
<path d="M0 0 C1.6875 1.375 1.6875 1.375 3 3 C3.99 3.66 4.98 4.32 6 5 C5.814375 5.763125 5.62875 6.52625 5.4375 7.3125 C4.77180827 10.08967375 4.77180827 10.08967375 6 13 C5.01 13 4.02 13 3 13 C3 13.66 3 14.32 3 15 C0.25322435 16.94563275 -1.86667449 17.14159027 -5.125 16.875 C-9 16 -9 16 -10.21484375 14.23046875 C-11.53432832 10.48208224 -11.71792567 6.90788407 -11 3 C-7.69327639 -0.20946703 -4.49132657 -0.58582521 0 0 Z " fill="#3F3529" transform="translate(189,216)"/>
<path d="M0 0 C2.31 0 4.62 0 7 0 C7 9.9 7 19.8 7 30 C4.69 30 2.38 30 0 30 C0 20.1 0 10.2 0 0 Z " fill="#F9F8F5" transform="translate(348,209)"/>
<path d="M0 0 C0.66 0 1.32 0 2 0 C2.09890033 5.90815343 2.17148371 11.81582472 2.21972656 17.72460938 C2.23983805 19.73446038 2.26713115 21.74425291 2.30175781 23.75390625 C2.35029634 26.64337596 2.37297322 29.53207191 2.390625 32.421875 C2.41127014 33.31992859 2.43191528 34.21798218 2.45318604 35.14324951 C2.45348816 35.98381897 2.45379028 36.82438843 2.45410156 37.69042969 C2.46298401 38.42767273 2.47186646 39.16491577 2.48101807 39.92449951 C1.77830547 42.95656926 0.44827485 44.13076353 -2 46 C-4.51760864 46.50120544 -4.51760864 46.50120544 -7.37939453 46.50170898 C-8.45375763 46.51108994 -9.52812073 46.52047089 -10.63504028 46.53013611 C-11.78930511 46.51890213 -12.94356995 46.50766815 -14.1328125 46.49609375 C-15.91508743 46.4982766 -15.91508743 46.4982766 -17.73336792 46.50050354 C-20.24333144 46.49884412 -22.75330509 46.48727827 -25.26318359 46.46655273 C-29.11729828 46.43755794 -32.97004161 46.44595188 -36.82421875 46.45898438 C-39.26042339 46.45274848 -41.69662367 46.4443587 -44.1328125 46.43359375 C-45.29112579 46.43652939 -46.44943909 46.43946503 -47.64285278 46.44248962 C-48.71091156 46.42980545 -49.77897034 46.41712128 -50.87939453 46.40405273 C-51.82219269 46.39864975 -52.76499084 46.39324677 -53.73635864 46.38768005 C-54.85686111 46.19577843 -54.85686111 46.19577843 -56 46 C-56.66 45.01 -57.32 44.02 -58 43 C-57.01 43.33 -56.02 43.66 -55 44 C-52.66700175 44.03954234 -50.33291811 44.04401732 -48 44 C-48 43.67 -48 43.34 -48 43 C-47.4406778 42.99191315 -46.88135559 42.98382629 -46.30508423 42.97549438 C-40.49774955 42.88961651 -34.69076285 42.7901211 -28.88378906 42.68261719 C-26.71490307 42.64427009 -24.54595223 42.60942745 -22.37695312 42.578125 C-19.26408668 42.53259862 -16.15166894 42.47458427 -13.0390625 42.4140625 C-12.065065 42.40251129 -11.0910675 42.39096008 -10.08755493 42.37905884 C-9.18677216 42.35918915 -8.28598938 42.33931946 -7.35791016 42.31884766 C-6.56293121 42.30552399 -5.76795227 42.29220032 -4.94888306 42.2784729 C-2.76534628 42.16532992 -2.76534628 42.16532992 -1 40 C-0.75393985 36.99113276 -0.62619218 34.06782248 -0.5859375 31.0546875 C-0.56657135 30.1696756 -0.5472052 29.2846637 -0.5272522 28.37283325 C-0.46737277 25.54032084 -0.42103787 22.70776797 -0.375 19.875 C-0.33682789 17.95701332 -0.29777662 16.03904393 -0.2578125 14.12109375 C-0.16166445 9.41420252 -0.07766458 4.70723104 0 0 Z " fill="#7D7B77" transform="translate(319,140)"/>
<path d="M0 0 C0.66 0 1.32 0 2 0 C2.1014521 7.31392566 2.17148763 14.62766974 2.21972656 21.94213867 C2.23983705 24.43016338 2.26712927 26.91814086 2.30175781 29.40600586 C2.35029853 32.98302875 2.37297495 36.55942651 2.390625 40.13671875 C2.41127014 41.24834885 2.43191528 42.35997894 2.45318604 43.5052948 C2.45446051 47.89536276 2.36845955 51.17020891 0.57421875 55.2109375 C-3.36112513 57.94597164 -6.89659928 57.62280936 -11.578125 57.48828125 C-12.5046991 57.48120651 -13.43127319 57.47413177 -14.38592529 57.46684265 C-17.34144285 57.43888371 -20.29505644 57.37614272 -23.25 57.3125 C-25.25518095 57.28741906 -27.26039163 57.26460553 -29.265625 57.24414062 C-34.17781543 57.18905204 -39.08858507 57.10276911 -44 57 C-44.66 55.68 -45.32 54.36 -46 53 C-45.01 53.33 -44.02 53.66 -43 54 C-40.00126382 54.1094295 -37.02645748 54.16405699 -34.02734375 54.16796875 C-32.70906334 54.17296135 -32.70906334 54.17296135 -31.364151 54.17805481 C-29.50733972 54.18311548 -27.65051935 54.1854634 -25.79370117 54.18530273 C-22.94499893 54.18749423 -20.09668084 54.20567259 -17.24804688 54.22460938 C-15.44531383 54.22754241 -13.64257894 54.22952781 -11.83984375 54.23046875 C-10.55701759 54.24124702 -10.55701759 54.24124702 -9.24827576 54.25224304 C-4.64567354 54.448751 -4.64567354 54.448751 -1 52 C-0.66898466 49.69661198 -0.66898466 49.69661198 -0.68115234 46.99951172 C-0.66128265 45.95858368 -0.64141296 44.91765564 -0.62094116 43.84518433 C-0.60938995 42.71807037 -0.59783875 41.59095642 -0.5859375 40.4296875 C-0.56657135 39.27832306 -0.5472052 38.12695862 -0.5272522 36.94070435 C-0.46732628 33.25221231 -0.42101874 29.56368928 -0.375 25.875 C-0.33683223 23.37889241 -0.29778122 20.88279815 -0.2578125 18.38671875 C-0.16161412 12.25793063 -0.07660494 6.12906262 0 0 Z " fill="#85837E" transform="translate(334,71)"/>
<path d="M0 0 C0.33 0 0.66 0 1 0 C1.19326436 7.22625204 1.37075091 14.45276627 1.53710938 21.6796875 C1.5956201 24.13973831 1.65778431 26.59970498 1.72363281 29.05957031 C1.81748648 32.5890369 1.89833002 36.1185945 1.9765625 39.6484375 C2.00875885 40.75367767 2.0409552 41.85891785 2.0741272 42.99765015 C2.10438492 44.52901108 2.10438492 44.52901108 2.13525391 46.09130859 C2.15746002 46.99287689 2.17966614 47.89444519 2.20254517 48.82333374 C2 51 2 51 0 53 C-2.97758059 53.23688518 -5.85896437 53.35240194 -8.83984375 53.37109375 C-9.71774063 53.38012222 -10.59563751 53.3891507 -11.50013733 53.39845276 C-13.35869933 53.4129735 -15.21731267 53.42184652 -17.07592773 53.42553711 C-19.92323642 53.43744037 -22.76838304 53.48661145 -25.61523438 53.53710938 C-27.41926023 53.54657247 -29.22329943 53.55380805 -31.02734375 53.55859375 C-31.88053696 53.57812607 -32.73373016 53.59765839 -33.61277771 53.61778259 C-35.85080838 53.60065463 -37.8269193 53.53515098 -40 53 C-42.88973093 49.7959967 -43 48.36215435 -43 44 C-44.65 43.67 -46.3 43.34 -48 43 C-48 42.67 -48 42.34 -48 42 C-46.02 42 -44.04 42 -42 42 C-40.515 45.465 -40.515 45.465 -39 49 C-19.695 49.495 -19.695 49.495 0 50 C0 33.5 0 17 0 0 Z " fill="#5D5E5C" transform="translate(331,73)"/>
<path d="M0 0 C0.66 0.33 1.32 0.66 2 1 C2.12365152 6.62329079 2.2143631 12.24578953 2.2746582 17.87011719 C2.29979381 19.78301783 2.33390784 21.69582251 2.37719727 23.60839844 C2.43789252 26.35896473 2.46621845 29.10826099 2.48828125 31.859375 C2.51408768 32.71368103 2.5398941 33.56798706 2.56648254 34.44818115 C2.56927061 40.35814601 2.56927061 40.35814601 -0.28051758 43.57128906 C-3 45 -3 45 -7 45 C-7 49.62 -7 54.24 -7 59 C-10.70916173 57.14541913 -13.52075407 55.19643657 -16.75 52.625 C-18.22726563 51.46871094 -18.22726563 51.46871094 -19.734375 50.2890625 C-22 48 -22 48 -22 44 C-18.81440048 45.39633107 -16.76056155 47.04557493 -14.375 49.5625 C-11.95478041 52.14015389 -11.95478041 52.14015389 -9 54 C-9 50.37 -9 46.74 -9 43 C-7.865625 42.71125 -6.73125 42.4225 -5.5625 42.125 C-4.386875 41.75375 -3.21125 41.3825 -2 41 C-0.33650681 37.67301363 -0.75621943 33.93570615 -0.68359375 30.2734375 C-0.66281265 29.41062164 -0.64203156 28.54780579 -0.62062073 27.65884399 C-0.55513966 24.89764507 -0.49624702 22.13634962 -0.4375 19.375 C-0.3943134 17.50519828 -0.35069907 15.63540638 -0.30664062 13.765625 C-0.19945976 9.17718272 -0.09818825 4.58864317 0 0 Z " fill="#83807C" transform="translate(273,55)"/>
<path d="M0 0 C0.99 0 1.98 0 3 0 C1.92159923 3.66656261 1.1623469 4.88621129 -2.04296875 7.1328125 C-6.01920856 11.0074957 -5.65537823 15.72386661 -5.7310791 20.92221069 C-5.73641853 23.19870155 -5.71470796 25.4736813 -5.6875 27.75 C-5.67620433 30.04326165 -5.6735071 32.33571966 -5.6879425 34.62896729 C-5.69534067 36.05129785 -5.68706904 37.47381429 -5.6615448 38.89593506 C-5.6628418 40.83886719 -5.6628418 40.83886719 -6 44 C-9.9148095 46.609873 -13.08631905 46.15493274 -17.60546875 45.9765625 C-18.44467361 45.95153656 -19.28387848 45.92651062 -20.14851379 45.90072632 C-22.82858895 45.81856181 -25.50792324 45.72195916 -28.1875 45.625 C-30.00452704 45.56675677 -31.82158447 45.50945356 -33.63867188 45.453125 C-38.09287393 45.31298837 -42.54646544 45.15990126 -47 45 C-47 44.67 -47 44.34 -47 44 C-34.46 44 -21.92 44 -9 44 C-9.31530479 33.49830202 -9.31530479 33.49830202 -9.72070312 23 C-9.98642752 12.51857922 -9.98642752 12.51857922 -7.21875 8.2578125 C-5.03125 6.125 -5.03125 6.125 -2.83007812 4.4453125 C-0.70929291 3.04206508 -0.70929291 3.04206508 0 0 Z " fill="#5C5B5B" transform="translate(253,121)"/>
<path d="M0 0 C1.83499146 -0.32279968 1.83499146 -0.32279968 4.08251953 -0.2487793 C4.92324005 -0.22853195 5.76396057 -0.20828461 6.63015747 -0.18742371 C7.53853363 -0.15006607 8.44690979 -0.11270844 9.3828125 -0.07421875 C10.31221649 -0.04777786 11.24162048 -0.02133698 12.19918823 0.00590515 C15.17509876 0.09385471 18.14981423 0.20293836 21.125 0.3125 C23.13927974 0.37573939 25.15360309 0.43760608 27.16796875 0.49804688 C32.1126263 0.64942561 37.05631356 0.81976472 42 1 C42 1.33 42 1.66 42 2 C40.82381104 2.02505615 39.64762207 2.0501123 38.43579102 2.07592773 C34.08785378 2.16982806 29.74008284 2.27009048 25.39233398 2.37231445 C23.50760782 2.41572933 21.62284064 2.45739943 19.73803711 2.49731445 C17.03486751 2.55485893 14.33190564 2.61859804 11.62890625 2.68359375 C10.78099014 2.70030624 9.93307404 2.71701874 9.0594635 2.73423767 C5.21707924 2.46409195 5.21707924 2.46409195 2 4 C1.87718048 5.62579218 1.82217496 7.25677004 1.79467773 8.88696289 C1.77473251 9.92796646 1.75478729 10.96897003 1.73423767 12.04151917 C1.71752518 13.1737944 1.70081268 14.30606964 1.68359375 15.47265625 C1.66281265 16.62543564 1.64203156 17.77821503 1.62062073 18.96592712 C1.55500036 22.66472157 1.49618245 26.36358959 1.4375 30.0625 C1.39432665 32.56315879 1.35071276 35.06381001 1.30664062 37.56445312 C1.19930632 43.70955662 1.09756357 49.85473404 1 56 C-0.485 56.495 -0.485 56.495 -2 57 C-2.05062418 49.36453069 -2.08570152 41.7291045 -2.10986328 34.09350586 C-2.11993368 31.49485659 -2.13359071 28.89621869 -2.15087891 26.29760742 C-2.17508139 22.56686603 -2.18647266 18.83627419 -2.1953125 15.10546875 C-2.20563507 13.93976852 -2.21595764 12.7740683 -2.22659302 11.57304382 C-2.22674408 10.49214981 -2.22689514 9.4112558 -2.22705078 8.29760742 C-2.231492 7.34496506 -2.23593323 6.39232269 -2.24050903 5.41081238 C-2 3 -2 3 0 0 Z " fill="#757471" transform="translate(201,109)"/>
<path d="M0 0 C1.37899979 0.00666183 1.37899979 0.00666183 2.78585815 0.01345825 C3.82678619 0.01360931 4.86771423 0.01376038 5.94018555 0.01391602 C7.63085648 0.02939987 7.63085648 0.02939987 9.35568237 0.04519653 C10.50704681 0.04802643 11.65841125 0.05085632 12.84466553 0.05377197 C16.533338 0.06499496 20.22177041 0.09010347 23.91036987 0.11550903 C26.40646012 0.12553609 28.90255417 0.13466241 31.39865112 0.14285278 C37.52763971 0.1649412 43.65648765 0.19843957 49.78536987 0.24050903 C49.78536987 1.23050903 49.78536987 2.22050903 49.78536987 3.24050903 C32.29536987 3.24050903 14.80536987 3.24050903 -3.21463013 3.24050903 C-3.21463013 15.78050903 -3.21463013 28.32050903 -3.21463013 41.24050903 C-3.54463013 41.24050903 -3.87463013 41.24050903 -4.21463013 41.24050903 C-4.26398223 35.72294427 -4.30032674 30.20550733 -4.32449341 24.68777466 C-4.33456547 22.80982221 -4.34822374 20.9318855 -4.36550903 19.0539856 C-4.38970466 16.35830813 -4.40110095 13.66283757 -4.40994263 10.96707153 C-4.4202652 10.12431671 -4.43058777 9.28156189 -4.44122314 8.41326904 C-4.44162157 6.35429656 -4.337206 4.29582969 -4.21463013 2.24050903 C-2.21463013 0.24050903 -2.21463013 0.24050903 0 0 Z " fill="#5A5958" transform="translate(220.21463012695313,52.759490966796875)"/>
<path d="M0 0 C0.66 0.33 1.32 0.66 2 1 C1.67 1.99 1.34 2.98 1 4 C1.99 4.33 2.98 4.66 4 5 C3.34 5 2.68 5 2 5 C2.04125 6.11375 2.0825 7.2275 2.125 8.375 C2 12 2 12 0 14 C-2.31 14 -4.62 14 -7 14 C-7 26.54 -7 39.08 -7 52 C-8.485 52.495 -8.485 52.495 -10 53 C-10.09881786 47.50078594 -10.17144379 42.00208765 -10.21972656 36.50219727 C-10.23985207 34.63101196 -10.26715549 32.75988961 -10.30175781 30.88891602 C-10.35023581 28.20052568 -10.37295872 25.51296612 -10.390625 22.82421875 C-10.41127014 21.98662521 -10.43191528 21.14903168 -10.45318604 20.28605652 C-10.45542163 14.51006002 -10.45542163 14.51006002 -8.17871094 11.96020508 C-5.35097055 10.71395867 -3.05442344 10.79174386 0 11 C0 7.37 0 3.74 0 0 Z " fill="#767777" transform="translate(271,127)"/>
<path d="M0 0 C3.2074725 1.60373625 4.61979844 2.37616015 6.9453125 4.78515625 C7.46480469 5.31560547 7.98429687 5.84605469 8.51953125 6.39257812 C9.04933594 6.94365234 9.57914062 7.49472656 10.125 8.0625 C15.19914977 13.30092081 17.32108062 15.09767884 24.7578125 15.31640625 C25.75238968 15.3475779 25.75238968 15.3475779 26.76705933 15.37937927 C28.88626694 15.44479231 31.005599 15.50372105 33.125 15.5625 C34.56121081 15.60569309 35.99740902 15.64930764 37.43359375 15.69335938 C40.95559594 15.80046499 44.47773825 15.90175575 48 16 C48 16.33 48 16.66 48 17 C43.46534343 17.19944358 38.93329598 17.34368374 34.39526367 17.43945312 C32.85574834 17.47941124 31.3165313 17.53380258 29.77807617 17.60351562 C15.36917224 18.23954644 15.36917224 18.23954644 9.43359375 13.09375 C6 9.49166371 6 9.49166371 6 7 C4.68 6.67 3.36 6.34 2 6 C2 9.63 2 13.26 2 17 C-0.64 16.67 -3.28 16.34 -6 16 C-6 15.67 -6 15.34 -6 15 C-4.02 15 -2.04 15 0 15 C0 10.05 0 5.1 0 0 Z " fill="#7C7974" transform="translate(269,121)"/>
<path d="M0 0 C0 0.99 0 1.98 0 3 C-0.66 3 -1.32 3 -2 3 C-1.67 3.99 -1.34 4.98 -1 6 C-2.40445835 8.2636564 -4.1967913 10.0208685 -6 12 C-5.01 12 -4.02 12 -3 12 C-2.67 11.01 -2.34 10.02 -2 9 C-2 9.66 -2 10.32 -2 11 C0.64 11 3.28 11 6 11 C5.67 11.66 5.34 12.32 5 13 C4.01 13 3.02 13 2 13 C2.66 13.33 3.32 13.66 4 14 C4.40729228 16.32156597 4.74438677 18.6568787 5 21 C4.01 21 3.02 21 2 21 C1.67 19.02 1.34 17.04 1 15 C-3.62 15 -8.24 15 -13 15 C-13 12 -13 12 -11.42578125 10.3515625 C-10.72839844 9.78179687 -10.03101563 9.21203125 -9.3125 8.625 C-6.03135631 5.88002899 -2.97663714 3.06965705 0 0 Z " fill="#777371" transform="translate(284,103)"/>
<path d="M0 0 C7.40256709 -0.48541424 7.40256709 -0.48541424 10 1.625 C11.23318878 4.55382336 11.2145758 6.85288821 11 10 C10.01 10 9.02 10 8 10 C7.3503125 10.99 7.3503125 10.99 6.6875 12 C6.130625 12.66 5.57375 13.32 5 14 C1.8125 14.25 1.8125 14.25 -1 14 C-1.66 12.68 -2.32 11.36 -3 10 C-1.68 9.67 -0.36 9.34 1 9 C1 7.68 1 6.36 1 5 C1.99 4.67 2.98 4.34 4 4 C4.33 3.34 4.66 2.68 5 2 C3.02 2 1.04 2 -1 2 C-0.67 1.34 -0.34 0.68 0 0 Z " fill="#372D22" transform="translate(261,217)"/>
<path d="M0 0 C0.66 1.65 1.32 3.3 2 5 C1.67 5 1.34 5 1 5 C0.67 17.54 0.34 30.08 0 43 C-0.33 43 -0.66 43 -1 43 C-1.02505615 41.82381104 -1.0501123 40.64762207 -1.07592773 39.43579102 C-1.16982806 35.08785378 -1.27009048 30.74008284 -1.37231445 26.39233398 C-1.41572933 24.50760782 -1.45739943 22.62284064 -1.49731445 20.73803711 C-1.55485893 18.03486751 -1.61859804 15.33190564 -1.68359375 12.62890625 C-1.70030624 11.78099014 -1.71701874 10.93307404 -1.73423767 10.0594635 C-1.46409195 6.21707924 -1.46409195 6.21707924 -3 3 C-4.56448383 2.87736612 -6.13432772 2.82220478 -7.70336914 2.79467773 C-9.20481224 2.7647599 -9.20481224 2.7647599 -10.73658752 2.73423767 C-12.36937904 2.70916893 -12.36937904 2.70916893 -14.03515625 2.68359375 C-15.14354355 2.66281265 -16.25193085 2.64203156 -17.39390564 2.62062073 C-20.95003808 2.55500377 -24.50624703 2.49618404 -28.0625 2.4375 C-30.46680493 2.39432632 -32.87110199 2.35071242 -35.27539062 2.30664062 C-41.18351185 2.19931008 -47.09170991 2.09756669 -53 2 C-53 1.67 -53 1.34 -53 1 C-45.77344288 0.85731097 -38.54687982 0.7149254 -31.3203125 0.57275391 C-28.86035017 0.52432177 -26.40038923 0.47581937 -23.94042969 0.42724609 C-20.41081088 0.35756385 -16.88118723 0.28813178 -13.3515625 0.21875 C-12.24632233 0.19687622 -11.14108215 0.17500244 -10.00234985 0.15246582 C-8.98144257 0.13244507 -7.96053528 0.11242432 -6.90869141 0.09179688 C-6.00712311 0.07403198 -5.10555481 0.05626709 -4.17666626 0.03796387 C-2.78459838 0.01368441 -1.3922796 0 0 0 Z " fill="#6F6E6C" transform="translate(273,51)"/>
<path d="M0 0 C0.33 0 0.66 0 1 0 C1.00808685 0.64701874 1.01617371 1.29403748 1.02450562 1.96066284 C1.11035872 8.67629128 1.20985315 15.39161796 1.31738281 22.10693359 C1.35573873 24.61534571 1.39057975 27.12381408 1.421875 29.63232422 C1.46738209 33.23165029 1.5254 36.83058683 1.5859375 40.4296875 C1.59748871 41.55680145 1.60903992 42.68391541 1.62094116 43.84518433 C1.64081085 44.88611237 1.66068054 45.92704041 1.68115234 46.99951172 C1.69447601 47.91884491 1.70779968 48.8381781 1.7215271 49.78536987 C1.79576051 52.20466952 1.79576051 52.20466952 4 54 C7.00886724 54.24606015 9.93217752 54.37380782 12.9453125 54.4140625 C14.27283035 54.44311172 14.27283035 54.44311172 15.62716675 54.4727478 C18.45967916 54.53262723 21.29223203 54.57896213 24.125 54.625 C26.04298668 54.66317211 27.96095607 54.70222338 29.87890625 54.7421875 C34.58579748 54.83833555 39.29276896 54.92233542 44 55 C44 55.33 44 55.66 44 56 C38.05518819 56.04934399 32.11049491 56.08569282 26.16552734 56.10986328 C24.14206873 56.11993671 22.11862472 56.13359595 20.09521484 56.15087891 C17.19104411 56.17506847 14.28706539 56.18646949 11.3828125 56.1953125 C10.02024826 56.21079636 10.02024826 56.21079636 8.63015747 56.22659302 C7.78943695 56.22674408 6.94871643 56.22689514 6.08251953 56.22705078 C4.96999313 56.23371262 4.96999313 56.23371262 3.83499146 56.24050903 C2 56 2 56 0 54 C-0.24050903 51.70944214 -0.24050903 51.70944214 -0.22705078 48.81591797 C-0.22689972 47.73494843 -0.22674866 46.65397888 -0.22659302 45.54025269 C-0.21627045 44.36939117 -0.20594788 43.19852966 -0.1953125 41.9921875 C-0.1924826 40.79643097 -0.18965271 39.60067444 -0.18673706 38.36868286 C-0.17551305 34.53735481 -0.15040431 30.70625778 -0.125 26.875 C-0.11497308 24.28255545 -0.10584673 21.69010725 -0.09765625 19.09765625 C-0.07556646 12.73169158 -0.04206706 6.36586229 0 0 Z " fill="#8E8D89" transform="translate(200,113)"/>
<path d="M0 0 C4.12494151 -0.05784708 8.24977944 -0.09354407 12.375 -0.125 C13.550625 -0.14175781 14.72625 -0.15851563 15.9375 -0.17578125 C17.61972656 -0.18544922 17.61972656 -0.18544922 19.3359375 -0.1953125 C20.37282715 -0.20578613 21.4097168 -0.21625977 22.47802734 -0.22705078 C25 0 25 0 27 2 C27.24050903 4.13870239 27.24050903 4.13870239 27.22705078 6.81689453 C27.22689972 7.81778107 27.22674866 8.8186676 27.22659302 9.84988403 C27.21627045 10.93325043 27.20594788 12.01661682 27.1953125 13.1328125 C27.1924826 14.23978485 27.18965271 15.3467572 27.18673706 16.48727417 C27.17551519 20.03329137 27.15040691 23.57905875 27.125 27.125 C27.1149728 29.52473594 27.1058465 31.92447583 27.09765625 34.32421875 C27.07556932 40.21623151 27.04207207 46.10809791 27 52 C26.67 52 26.34 52 26 52 C25.98969254 51.40087296 25.97938507 50.80174591 25.96876526 50.1844635 C25.86093035 43.97189912 25.74631456 37.75948659 25.62768555 31.54711914 C25.58426261 29.22586227 25.54259316 26.90457192 25.50268555 24.58325195 C25.4451606 21.25461722 25.38141575 17.92615215 25.31640625 14.59765625 C25.29969376 13.55287613 25.28298126 12.50809601 25.26576233 11.43165588 C25.24581711 10.47073532 25.22587189 9.50981476 25.20532227 8.51977539 C25.18200584 7.24403404 25.18200584 7.24403404 25.15821838 5.94252014 C25.21055171 3.99476202 25.21055171 3.99476202 24 3 C22.39011809 2.8670122 20.77495575 2.79666237 19.16015625 2.75390625 C17.6896582 2.70459961 17.6896582 2.70459961 16.18945312 2.65429688 C14.10883172 2.5932168 12.02809603 2.53591031 9.94726562 2.48242188 C8.96564453 2.44826172 7.98402344 2.41410156 6.97265625 2.37890625 C5.61539429 2.34132202 5.61539429 2.34132202 4.23071289 2.30297852 C2 2 2 2 0 0 Z " fill="#444442" transform="translate(306,69)"/>
<path d="M0 0 C3 0 3 0 5.375 2.1875 C7.02891795 3.95955494 8.64298476 5.77050947 10.19604492 7.6315918 C13.79835443 10.67434361 15.81814536 10.65121289 20.48828125 10.70703125 C21.5430793 10.72971321 21.5430793 10.72971321 22.6191864 10.75285339 C24.85062003 10.79561495 27.08069809 10.80455593 29.3125 10.8125 C30.83141595 10.83565371 32.35029988 10.86102089 33.86914062 10.88867188 C37.57940133 10.95140606 41.28921085 10.98383444 45 11 C41.31146887 14.68853113 35.06729467 13.49378617 30.04394531 13.53540039 C27.90218387 13.56216035 25.76550114 13.63697405 23.625 13.71289062 C17.24097943 13.83355723 12.1125359 13.92669588 7.0703125 9.58984375 C5.33506726 7.75491826 4.12728061 6.25456121 3 4 C2.01 3.67 1.02 3.34 0 3 C0 2.01 0 1.02 0 0 Z " fill="#616261" transform="translate(272,128)"/>
<path d="M0 0 C5.62334306 -0.0741916 11.2464008 -0.12862179 16.87011719 -0.16479492 C18.78292809 -0.17987558 20.69570446 -0.2003431 22.60839844 -0.22631836 C25.3588107 -0.26273347 28.10876554 -0.27973349 30.859375 -0.29296875 C31.71368103 -0.30845261 32.56798706 -0.32393646 33.44818115 -0.33988953 C36.97513106 -0.34088785 39.37195863 -0.31648053 42.55566406 1.2878418 C44.843627 4.0000602 44.25654599 6.60076569 44 10 C43.731875 9.401875 43.46375 8.80375 43.1875 8.1875 C41.9715501 5.94759228 40.95169383 4.62402016 39 3 C35.99463039 2.66856532 33.18554272 2.51124244 30.17578125 2.48828125 C28.88367989 2.46135445 28.88367989 2.46135445 27.56547546 2.43388367 C24.81453342 2.37970702 22.06376559 2.34586177 19.3125 2.3125 C17.44724134 2.27933337 15.5820057 2.24484433 13.71679688 2.20898438 C9.14465682 2.12397644 4.57256909 2.05720057 0 2 C0 1.34 0 0.68 0 0 Z " fill="#82807C" transform="translate(204,108)"/>
<path d="M0 0 C0.66 0.33 1.32 0.66 2 1 C2.07410727 6.64165361 2.12858167 12.28302447 2.16479492 17.92504883 C2.1798898 19.84469538 2.20036773 21.7643074 2.22631836 23.68383789 C2.26267109 26.44165564 2.27971912 29.1990178 2.29296875 31.95703125 C2.30845261 32.81649857 2.32393646 33.67596588 2.33988953 34.56147766 C2.34011612 35.36208115 2.34034271 36.16268463 2.34057617 36.98754883 C2.34723801 37.6914827 2.35389984 38.39541656 2.36076355 39.12068176 C1.88828649 41.58194691 0.97176816 42.49906182 -1 44 C-3.1875 43.6875 -3.1875 43.6875 -5 43 C-4.35256836 42.52401367 -3.70513672 42.04802734 -3.03808594 41.55761719 C-0.08579577 37.85275474 -0.39743493 34.69201813 -0.390625 30.078125 C-0.37408875 29.21813904 -0.35755249 28.35815308 -0.34051514 27.47210693 C-0.29201632 24.73133212 -0.27066044 21.9911122 -0.25 19.25 C-0.22184183 17.38929497 -0.19191461 15.52861581 -0.16015625 13.66796875 C-0.08625703 9.11202485 -0.03669405 4.55638933 0 0 Z " fill="#8A8784" transform="translate(273,55)"/>
<path d="M0 0 C14.85 0 29.7 0 45 0 C42 4 42 4 40.04475403 4.48101807 C39.30529037 4.47213562 38.56582672 4.46325317 37.80395508 4.45410156 C36.96331009 4.45379944 36.1226651 4.45349731 35.25654602 4.45318604 C34.35333115 4.43254089 33.45011627 4.41189575 32.51953125 4.390625 C31.59154221 4.38496521 30.66355316 4.37930542 29.70744324 4.37347412 C26.74193854 4.35107376 23.7776398 4.30087073 20.8125 4.25 C18.80275182 4.22993973 16.79298471 4.21168813 14.78320312 4.1953125 C9.85500371 4.15119696 4.92770635 4.08214424 0 4 C0 2.66666667 0 1.33333333 0 0 Z " fill="#72706C" transform="translate(203,166)"/>
<path d="M0 0 C0.25 2.3125 0.25 2.3125 0 5 C-2 6.8125 -2 6.8125 -4 8 C-4.66 7.67 -5.32 7.34 -6 7 C-6.433125 7.8971875 -6.433125 7.8971875 -6.875 8.8125 C-8.29833884 11.58010329 -9.36330229 13.62422321 -12.08691406 15.23168945 C-14.33540887 16.94765873 -14.33540887 16.94765873 -14.54589844 20.27807617 C-14.58708933 21.61590698 -14.60697246 22.95450613 -14.609375 24.29296875 C-14.62591125 24.99899734 -14.64244751 25.70502594 -14.65948486 26.43244934 C-14.70801288 28.68422092 -14.72934438 30.93531709 -14.75 33.1875 C-14.77815599 34.71552886 -14.80808291 36.24352619 -14.83984375 37.77148438 C-14.91377194 41.51426728 -14.96331623 45.25667424 -15 49 C-15.66 49 -16.32 49 -17 49 C-17.03022196 44.42730256 -17.01438892 39.85784268 -16.95727539 35.28540039 C-16.94419782 33.73272095 -16.94334443 32.17988558 -16.95532227 30.62719727 C-17.04237511 17.71435805 -17.04237511 17.71435805 -14.47607422 13.49365234 C-12.73996535 11.77028556 -10.99011391 10.41153167 -9 9 C-8.04935405 7.94635814 -7.13005961 6.86327624 -6.25 5.75 C-1.54545455 0 -1.54545455 0 0 0 Z " fill="#4A443D" transform="translate(265,118)"/>
<path d="M0 0 C3.73243704 0.07813475 4.55049273 0.33474455 7.6875 2.6875 C9.44731787 5.10724957 10.36217334 6.50956006 10.6875 9.4375 C8.3775 9.7675 6.0675 10.0975 3.6875 10.4375 C3.0275 8.7875 2.3675 7.1375 1.6875 5.4375 C2.3475 5.4375 3.0075 5.4375 3.6875 5.4375 C3.6875 4.4475 3.6875 3.4575 3.6875 2.4375 C0.3875 2.4375 -2.9125 2.4375 -6.3125 2.4375 C-3.94209692 0.06709692 -3.24947247 0.09284207 0 0 Z " fill="#E1DCD6" transform="translate(421.3125,207.5625)"/>
<path d="M0 0 C0.99 0 1.98 0 3 0 C1.95076457 3.84719658 0.53269482 5.37294106 -2.53125 7.6875 C-6.7207275 11.78647574 -6.81302895 15.85035795 -6.9533844 21.53041077 C-6.97096619 23.66672998 -6.9550876 25.801209 -6.9375 27.9375 C-6.95062396 29.39912024 -6.96687132 30.86071597 -6.98632812 32.32226562 C-7.02696615 35.88194559 -7.02510772 39.44010632 -7 43 C-7.33 43 -7.66 43 -8 43 C-8.17401145 38.42866179 -8.3005046 33.85927952 -8.38452148 29.28540039 C-8.41956542 27.73232417 -8.46721857 26.17947629 -8.52807617 24.62719727 C-9.02358763 11.65645614 -9.02358763 11.65645614 -6.44580078 7.48486328 C-4.53515625 5.62890625 -4.53515625 5.62890625 -2.61352539 4.22875977 C-0.68758829 3.00136032 -0.68758829 3.00136032 0 0 Z " fill="#40403F" transform="translate(253,121)"/>
<path d="M0 0 C6.15234375 -0.09765625 6.15234375 -0.09765625 8 0 C9 1 9 1 9.0625 4.0625 C9.041875 5.031875 9.02125 6.00125 9 7 C6.03 7 3.06 7 0 7 C0 4.69 0 2.38 0 0 Z " fill="#372B21" transform="translate(220,216)"/>
<path d="M0 0 C2.64 0 5.28 0 8 0 C8 0.33 8 0.66 8 1 C5.69 1 3.38 1 1 1 C1 5.95 1 10.9 1 16 C-2.78318216 12.21681784 -4.53673537 9.57463432 -7 5 C-5.02 4.67 -3.04 4.34 -1 4 C-0.67 2.68 -0.34 1.36 0 0 Z " fill="#453C35" transform="translate(387,207)"/>
<path d="M0 0 C2.97 0 5.94 0 9 0 C9.50512244 1.60256108 10.00391627 3.20711792 10.5 4.8125 C10.7784375 5.70582031 11.056875 6.59914062 11.34375 7.51953125 C12 10 12 10 12 13 C12.99 13 13.98 13 15 13 C15.33 12.01 15.66 11.02 16 10 C15.4140625 16.15234375 15.4140625 16.15234375 15 18 C14.34 18.33 13.68 18.66 13 19 C12.15621025 16.94175571 11.32536378 14.87820214 10.5 12.8125 C10.0359375 11.66394531 9.571875 10.51539063 9.09375 9.33203125 C8.09194348 6.28009923 7.76129196 4.16884928 8 1 C6.68 1 5.36 1 4 1 C4 1.66 4 2.32 4 3 C1.5 4.625 1.5 4.625 -1 6 C-0.67 4.02 -0.34 2.04 0 0 Z " fill="#D9D4CD" transform="translate(309,209)"/>
<path d="M0 0 C0.33 0 0.66 0 1 0 C1.31861796 3.98138254 1.58713554 7.9628663 1.81176758 11.95068359 C1.89476478 13.30345734 1.99086198 14.6554989 2.10083008 16.00634766 C3.11562765 28.6609202 3.11562765 28.6609202 -1.37109375 33.9375 C-4.53397028 37 -4.53397028 37 -7 37 C-7 37.99 -7 38.98 -7 40 C-7.99 40 -8.98 40 -10 40 C-8.62651903 36.77622484 -7.19608823 35.27770213 -4.43359375 33.18359375 C0.10439358 28.777381 -0.13572036 24.14231035 -0.02929688 18.07617188 C-0.03961484 16.73827526 -0.05069181 15.40038429 -0.0625 14.0625 C-0.04937398 12.69723171 -0.03312559 11.33198967 -0.01367188 9.96679688 C0.02155746 6.64349627 0.02512593 3.32330174 0 0 Z " fill="#545453" transform="translate(288,75)"/>
<path d="M0 0 C0.33 0 0.66 0 1 0 C1.47792208 7.16883117 1.47792208 7.16883117 -0.4375 10.5 C-4.1319249 12.66259019 -7.81434414 12.85563131 -12 12 C-13.77734375 10.47265625 -13.77734375 10.47265625 -15 9 C-14.67 8.34 -14.34 7.68 -14 7 C-13.34 7 -12.68 7 -12 7 C-12 7.99 -12 8.98 -12 10 C-10.02 10 -8.04 10 -6 10 C-5.731875 9.401875 -5.46375 8.80375 -5.1875 8.1875 C-4.00691239 6.01273336 -2.73183488 4.73183488 -1 3 C-0.67 2.01 -0.34 1.02 0 0 Z " fill="#615C54" transform="translate(272,221)"/>
<path d="M0 0 C0 1.32 0 2.64 0 4 C-0.57111511 3.67468292 -1.14223022 3.34936584 -1.73065186 3.01419067 C-4.15879598 1.92903275 -5.67129496 1.75705599 -8.30957031 1.77294922 C-9.15013977 1.77310028 -9.99070923 1.77325134 -10.85675049 1.77340698 C-11.75480408 1.78372955 -12.65285767 1.79405212 -13.578125 1.8046875 C-14.96798615 1.80893234 -14.96798615 1.80893234 -16.38592529 1.81326294 C-19.34074909 1.82444389 -22.29526805 1.84954473 -25.25 1.875 C-27.25520395 1.88503249 -29.26041266 1.89415787 -31.265625 1.90234375 C-36.17720051 1.92437642 -41.08854859 1.95889205 -46 2 C-45.67 1.34 -45.34 0.68 -45 0 C-38.91291842 -0.16737766 -32.82571052 -0.32796157 -26.73828125 -0.48217773 C-24.66629175 -0.5356348 -22.59434976 -0.59096697 -20.52246094 -0.64819336 C-17.54893237 -0.73000096 -14.57529961 -0.80512222 -11.6015625 -0.87890625 C-10.67131256 -0.90594131 -9.74106262 -0.93297638 -8.78262329 -0.96083069 C-7.92188202 -0.98092697 -7.06114075 -1.00102325 -6.17431641 -1.02172852 C-5.41486725 -1.04171402 -4.65541809 -1.06169952 -3.87295532 -1.08229065 C-2 -1 -2 -1 0 0 Z " fill="#4F4842" transform="translate(248,107)"/>
<path d="M0 0 C2.64 0 5.28 0 8 0 C8.66 1.32 9.32 2.64 10 4 C9.01 3.67 8.02 3.34 7 3 C6.67 3.66 6.34 4.32 6 5 C5.34 5 4.68 5 4 5 C3.67 3.68 3.34 2.36 3 1 C2.34 1 1.68 1 1 1 C1 10.57 1 20.14 1 30 C0.67 30 0.34 30 0 30 C0 20.1 0 10.2 0 0 Z " fill="#E3DFD9" transform="translate(102,209)"/>
<path d="M0 0 C0.33 0 0.66 0 1 0 C1 1.98 1 3.96 1 6 C5.95 6 10.9 6 16 6 C15.67 6.99 15.34 7.98 15 9 C14.67 8.34 14.34 7.68 14 7 C12.02 7 10.04 7 8 7 C8 7.66 8 8.32 8 9 C7.01 9 6.02 9 5 9 C4.67 9.99 4.34 10.98 4 12 C2.02 11.34 0.04 10.68 -2 10 C-1.34 9.34 -0.68 8.68 0 8 C-0.66 7.67 -1.32 7.34 -2 7 C-2.125 4.625 -2.125 4.625 -2 2 C-1.34 1.34 -0.68 0.68 0 0 Z " fill="#75726D" transform="translate(248,112)"/>
<path d="M0 0 C2.1385485 2.1385485 2.42655063 3.13275314 3 6 C2.01 6 1.02 6 0 6 C0 6.66 0 7.32 0 8 C-2.80905477 9.98974713 -4.87286664 10.1011012 -8.1875 9.75 C-9.445625 9.5025 -10.70375 9.255 -12 9 C-12.33 8.34 -12.66 7.68 -13 7 C-10.69 7 -8.38 7 -6 7 C-5.67 6.01 -5.34 5.02 -5 4 C-4.01 4 -3.02 4 -2 4 C-1.67 3.01 -1.34 2.02 -1 1 C-0.67 0.67 -0.34 0.34 0 0 Z " fill="#4A4137" transform="translate(192,223)"/>
<path d="M0 0 C3.44263129 -0.39344358 4.81718319 -0.11375268 7.8125 1.75 C10 4 10 4 10 8 C3.375 7.25 3.375 7.25 0 5 C-0.1875 2.375 -0.1875 2.375 0 0 Z " fill="#665F56" transform="translate(418,215)"/>
<path d="M0 0 C0.57490173 0.32342377 1.14980347 0.64684753 1.74212646 0.98007202 C4.08588844 2.03879758 5.57810919 2.27047043 8.12597656 2.31884766 C8.92650452 2.33871735 9.72703247 2.35858704 10.55181885 2.37905884 C11.83327789 2.39638565 11.83327789 2.39638565 13.140625 2.4140625 C14.02280701 2.43342865 14.90498901 2.4527948 15.81390381 2.4727478 C18.62583816 2.53242848 21.4378137 2.57888283 24.25 2.625 C26.15887181 2.66319038 28.06772659 2.70224273 29.9765625 2.7421875 C34.65090296 2.83812058 39.32532409 2.92219416 44 3 C44 3.33 44 3.66 44 4 C30.14 4 16.28 4 2 4 C1.34 2.68 0.68 1.36 0 0 Z " fill="#888783" transform="translate(200,165)"/>
<path d="M0 0 C2.45850334 0.43901845 3.81155748 0.83310378 5.70605469 2.51098633 C8.84890252 4.55102772 11.22534962 4.43274046 14.953125 4.51171875 C15.94345734 4.53864555 15.94345734 4.53864555 16.95379639 4.56611633 C19.05246689 4.62008809 21.15091177 4.65407043 23.25 4.6875 C24.67711464 4.72068495 26.10419956 4.75517571 27.53125 4.79101562 C31.02061652 4.8758047 34.51006191 4.94267888 38 5 C38 5.33 38 5.66 38 6 C33.39198858 6.14873164 28.78538408 6.257388 24.17553711 6.32958984 C22.60888321 6.35969601 21.04239697 6.4005923 19.47631836 6.45263672 C17.21946857 6.52573887 14.96485204 6.55951301 12.70703125 6.5859375 C12.01100296 6.61690521 11.31497467 6.64787292 10.59785461 6.67977905 C7.74339981 6.68173814 5.61364245 6.53108907 3.41049194 4.62432861 C2.01831055 2.96337891 2.01831055 2.96337891 0 0 Z " fill="#898884" transform="translate(279,132)"/>
<path d="M0 0 C1.18916016 0.02707031 1.18916016 0.02707031 2.40234375 0.0546875 C4.35208348 0.10166918 6.30119878 0.17340956 8.25 0.25 C8.25 0.58 8.25 0.91 8.25 1.25 C7.20199219 1.28738281 6.15398437 1.32476562 5.07421875 1.36328125 C3.69527695 1.42894515 2.31637229 1.49539235 0.9375 1.5625 C-0.09793945 1.59633789 -0.09793945 1.59633789 -1.15429688 1.63085938 C-3.94685728 1.7792563 -6.21944241 1.93688404 -8.65625 3.375 C-10.27081089 6.14281868 -10.53043439 8.77491334 -10.9375 11.9375 C-11.09605469 13.11699219 -11.25460937 14.29648438 -11.41796875 15.51171875 C-11.52753906 16.41535156 -11.63710938 17.31898437 -11.75 18.25 C-12.08 18.25 -12.41 18.25 -12.75 18.25 C-12.85823773 16.00106046 -12.93569645 13.75062425 -13 11.5 C-13.04640625 10.24703125 -13.0928125 8.9940625 -13.140625 7.703125 C-12.75 4.25 -12.75 4.25 -11.28125 1.8125 C-7.55074075 -0.49028349 -4.28875541 -0.18492146 0 0 Z " fill="#8B8683" transform="translate(298.75,66.75)"/>
<path d="M0 0 C0.515625 0.391875 1.03125 0.78375 1.5625 1.1875 C1.5625 2.1775 1.5625 3.1675 1.5625 4.1875 C0.9025 4.1875 0.2425 4.1875 -0.4375 4.1875 C-0.4375 4.8475 -0.4375 5.5075 -0.4375 6.1875 C-3.25 6.4375 -3.25 6.4375 -6.4375 6.1875 C-8.3125 4.1875 -8.3125 4.1875 -9.4375 2.1875 C-3.0375 -1.0125 -3.0375 -1.0125 0 0 Z " fill="#D1CCC4" transform="translate(198.4375,213.8125)"/>
<path d="M0 0 C0.33 1.32 0.66 2.64 1 4 C1.66 4 2.32 4 3 4 C2 11.42857143 2 11.42857143 1 15 C0.34 15 -0.32 15 -1 15 C-2.42242743 10.55491427 -2.78796719 5.92067002 -1 1.5625 C-0.67 1.046875 -0.34 0.53125 0 0 Z " fill="#40372E" transform="translate(304,211)"/>
<path d="M0 0 C3.71888239 0.50712033 6.73454239 1.11608215 10 3 C10 4.32 10 5.64 10 7 C8.72125 7.061875 7.4425 7.12375 6.125 7.1875 C5.40570313 7.22230469 4.68640625 7.25710937 3.9453125 7.29296875 C3.30335938 7.19628906 2.66140625 7.09960938 2 7 C1.34 6.01 0.68 5.02 0 4 C1.32 3.67 2.64 3.34 4 3 C2.68 2.01 1.36 1.02 0 0 Z " fill="#69615A" transform="translate(415,226)"/>
<path d="M0 0 C1.14889133 3.93905597 1.52582695 7.93565958 2 12 C-0.31 11.67 -2.62 11.34 -5 11 C-5 10.01 -5 9.02 -5 8 C-4.01 7.67 -3.02 7.34 -2 7 C-1.855625 6.21625 -1.71125 5.4325 -1.5625 4.625 C-1 2 -1 2 0 0 Z " fill="#4B4035" transform="translate(122,228)"/>
<path d="M0 0 C0.33 0.66 0.66 1.32 1 2 C1.98742187 1.91621094 2.97484375 1.83242187 3.9921875 1.74609375 C5.27351563 1.64425781 6.55484375 1.54242188 7.875 1.4375 C9.78925781 1.28087891 9.78925781 1.28087891 11.7421875 1.12109375 C15 1 15 1 17 2 C17.40729228 4.32156597 17.74438677 6.6568787 18 9 C17.01 9 16.02 9 15 9 C14.67 7.02 14.34 5.04 14 3 C9.38 3 4.76 3 0 3 C0 2.01 0 1.02 0 0 Z " fill="#716D69" transform="translate(271,115)"/>
<path d="M0 0 C2.83400876 2.83400876 4.07159703 4.19354781 5 8 C3.75 10.3125 3.75 10.3125 2 12 C1.34 12 0.68 12 0 12 C0 8.04 0 4.08 0 0 Z " fill="#42382E" transform="translate(110,224)"/>
<path d="M0 0 C0.66 0.33 1.32 0.66 2 1 C1.67 5.62 1.34 10.24 1 15 C-1.64 14.67 -4.28 14.34 -7 14 C-7 13.67 -7 13.34 -7 13 C-5.02 13 -3.04 13 -1 13 C-1.01160156 12.14535156 -1.02320313 11.29070312 -1.03515625 10.41015625 C-1.04417969 9.30542969 -1.05320312 8.20070312 -1.0625 7.0625 C-1.07410156 5.96035156 -1.08570313 4.85820313 -1.09765625 3.72265625 C-1 1 -1 1 0 0 Z " fill="#82807E" transform="translate(270,123)"/>
<path d="M0 0 C0.99 0.33 1.98 0.66 3 1 C5.20959253 1.15109093 7.42300047 1.24873801 9.63671875 1.31640625 C10.93544922 1.35830078 12.23417969 1.40019531 13.57226562 1.44335938 C14.94400761 1.48316987 16.31575244 1.52288216 17.6875 1.5625 C19.07097645 1.60570835 20.45444027 1.64932339 21.83789062 1.69335938 C25.22515719 1.79958028 28.61249799 1.90162358 32 2 C32 2.33 32 2.66 32 3 C21.77 3 11.54 3 1 3 C0.67 2.01 0.34 1.02 0 0 Z " fill="#868782" transform="translate(288,124)"/>
<path d="M0 0 C2.12508244 3.18762365 2.5020163 5.26512223 3 9 C2.01 9 1.02 9 0 9 C-2.18777466 10.9375006 -2.18777466 10.9375006 -4 13 C-3.52511102 11.01980257 -3.04497141 9.04086365 -2.5625 7.0625 C-2.29566406 5.96035156 -2.02882813 4.85820312 -1.75390625 3.72265625 C-1 1 -1 1 0 0 Z " fill="#585148" transform="translate(313,222)"/>
<path d="M0 0 C0.90105469 0.02707031 1.80210937 0.05414063 2.73046875 0.08203125 C3.76107422 0.13423828 3.76107422 0.13423828 4.8125 0.1875 C5.4725 1.8375 6.1325 3.4875 6.8125 5.1875 C6.4825 4.6925 6.1525 4.1975 5.8125 3.6875 C2.63677253 1.30570439 -0.28996066 1.99581774 -4.1875 2.1875 C-5.5075 5.1575 -6.8275 8.1275 -8.1875 11.1875 C-8.5175 11.1875 -8.8475 11.1875 -9.1875 11.1875 C-8.5776858 3.74776679 -8.5776858 3.74776679 -6.96875 1.4375 C-4.55028847 -0.25966598 -2.92315705 -0.11388924 0 0 Z " fill="#756E65" transform="translate(265.1875,215.8125)"/>
<path d="M0 0 C3 0 3 0 5.375 2.125 C8.01633735 5.01789329 10.52762152 7.96250644 13 11 C8.69032084 11 7.10253255 8.83274712 4 6 C3.67 5.34 3.34 4.68 3 4 C2.01 3.67 1.02 3.34 0 3 C0 2.01 0 1.02 0 0 Z " fill="#5C5D59" transform="translate(272,128)"/>
<path d="M0 0 C1 3 1 3 0.00390625 5.26171875 C-0.47175781 6.06222656 -0.94742188 6.86273438 -1.4375 7.6875 C-2.14712891 8.89986328 -2.14712891 8.89986328 -2.87109375 10.13671875 C-3.24363281 10.75160156 -3.61617188 11.36648437 -4 12 C-4.66 12 -5.32 12 -6 12 C-6.71484375 10.265625 -6.71484375 10.265625 -7 8 C-5.56640625 5.859375 -5.56640625 5.859375 -3.5625 3.75 C-2.57443359 2.69039062 -2.57443359 2.69039062 -1.56640625 1.609375 C-1.04949219 1.07828125 -0.53257813 0.5471875 0 0 Z " fill="#423A31" transform="translate(123,210)"/>
<path d="M0 0 C3.33523252 1.38009621 5.18607951 2.84950652 7 6 C6.67 6.99 6.34 7.98 6 9 C3.69 7.02 1.38 5.04 -1 3 C-0.67 2.01 -0.34 1.02 0 0 Z " fill="#797570" transform="translate(251,99)"/>
<path d="M0 0 C6.15234375 -0.09765625 6.15234375 -0.09765625 8 0 C9 1 9 1 9.0625 4.0625 C9.041875 5.031875 9.02125 6.00125 9 7 C6.03 7 3.06 7 0 7 C0 6.67 0 6.34 0 6 C2.64 6 5.28 6 8 6 C7.43637698 3.95163118 7.43637698 3.95163118 6 2 C2.94091587 1.18415432 2.94091587 1.18415432 0 1 C0 0.67 0 0.34 0 0 Z " fill="#635A52" transform="translate(220,216)"/>
<path d="M0 0 C0.66 0.33 1.32 0.66 2 1 C1.54625 1.4125 1.0925 1.825 0.625 2.25 C-1.05950374 4.06408095 -1.99265971 5.75285627 -3 8 C-3.66 8 -4.32 8 -5 8 C-5.33 11.3 -5.66 14.6 -6 18 C-6.33 18 -6.66 18 -7 18 C-7.68319814 11.85121672 -7.39114425 8.86993637 -3.5 3.9375 C-2.35379995 2.60708923 -1.19363163 1.28802597 0 0 Z " fill="#BCB5AE" transform="translate(255,210)"/>
<path d="M0 0 C0.66 0.66 1.32 1.32 2 2 C0.88625 2.226875 -0.2275 2.45375 -1.375 2.6875 C-5.16038373 3.60623658 -5.16038373 3.60623658 -6.4375 6.625 C-6.623125 7.40875 -6.80875 8.1925 -7 9 C-7.33 9 -7.66 9 -8 9 C-8.125 6.125 -8.125 6.125 -8 3 C-5.40517871 0.40517871 -3.60116375 0.30009698 0 0 Z " fill="#5C5A5A" transform="translate(270,94)"/>
<path d="M0 0 C0.66 1.65 1.32 3.3 2 5 C1.32582031 4.68289062 0.65164063 4.36578125 -0.04296875 4.0390625 C-3.53224473 2.81297609 -6.62440058 2.58180931 -10.3125 2.375 C-12.19388672 2.26285156 -12.19388672 2.26285156 -14.11328125 2.1484375 C-15.06589844 2.09945312 -16.01851563 2.05046875 -17 2 C-17 1.67 -17 1.34 -17 1 C-14.54171921 0.83252588 -12.08338135 0.6659856 -9.625 0.5 C-8.92632812 0.45230469 -8.22765625 0.40460937 -7.5078125 0.35546875 C-2.2265625 0 -2.2265625 0 0 0 Z " fill="#807B7A" transform="translate(273,51)"/>
<path d="M0 0 C-1.55500981 3.81684226 -4.03595495 6.19195732 -7 9 C-6.67 9.66 -6.34 10.32 -6 11 C-7.32 11 -8.64 11 -10 11 C-8.64763423 8.06120516 -7.10057341 5.70767089 -5 3.25 C-4.484375 2.63640625 -3.96875 2.0228125 -3.4375 1.390625 C-2 0 -2 0 0 0 Z " fill="#989798" transform="translate(292,103)"/>
<path d="M0 0 C0.66 0.33 1.32 0.66 2 1 C2.48951049 7.36363636 2.48951049 7.36363636 0.125 10.4375 C-2 12 -2 12 -4 12 C-4 11.34 -4 10.68 -4 10 C-3.525625 9.608125 -3.05125 9.21625 -2.5625 8.8125 C-0.25334174 6.13387641 -0.32445657 3.43923968 0 0 Z " fill="#898787" transform="translate(286,96)"/>
<path d="M0 0 C0.33 0.99 0.66 1.98 1 3 C1.99 3 2.98 3 4 3 C4.33 2.01 4.66 1.02 5 0 C4.4140625 6.15234375 4.4140625 6.15234375 4 8 C3.01 8.495 3.01 8.495 2 9 C0.50178941 5.62902617 0 3.79557881 0 0 Z " fill="#89837D" transform="translate(320,219)"/>
<path d="M0 0 C0.33 0 0.66 0 1 0 C1 2.64 1 5.28 1 8 C-0.65 8.33 -2.3 8.66 -4 9 C-3.35499066 5.51694958 -1.95865224 2.93797836 0 0 Z " fill="#59524B" transform="translate(272,221)"/>
<path d="M0 0 C0.66 0 1.32 0 2 0 C2 0.66 2 1.32 2 2 C0.66666667 3.33333333 -0.66666667 4.66666667 -2 6 C-2.33 6.99 -2.66 7.98 -3 9 C-3.99 6.69 -4.98 4.38 -6 2 C-4.7934375 1.7834375 -4.7934375 1.7834375 -3.5625 1.5625 C-1.07896294 1.25864751 -1.07896294 1.25864751 0 0 Z " fill="#E3DFD8" transform="translate(117,222)"/>
<path d="M0 0 C0.66 0.33 1.32 0.66 2 1 C1.01 2.98 0.02 4.96 -1 7 C-1.99 6.34 -2.98 5.68 -4 5 C-4 4.01 -4 3.02 -4 2 C-2.125 0.9375 -2.125 0.9375 0 0 Z " fill="#E2DDD5" transform="translate(413,230)"/>
<path d="M0 0 C4 2 4 2 4.875 4.4375 C5 7 5 7 3 10 C2.01 6.7 1.02 3.4 0 0 Z " fill="#504740" transform="translate(318,212)"/>
<path d="M0 0 C2.31 0 4.62 0 7 0 C6.01 0.33 5.02 0.66 4 1 C4 1.66 4 2.32 4 3 C4.66 3.33 5.32 3.66 6 4 C4.35 4 2.7 4 1 4 C0.67 2.68 0.34 1.36 0 0 Z " fill="#362D1D" transform="translate(372,241)"/>
<path d="M0 0 C2.64 0 5.28 0 8 0 C8 0.66 8 1.32 8 2 C3.545 2.495 3.545 2.495 -1 3 C-0.67 2.01 -0.34 1.02 0 0 Z " fill="#626262" transform="translate(263,139)"/>
<path d="M0 0 C2.64 0.33 5.28 0.66 8 1 C7.01 1.33 6.02 1.66 5 2 C4.67 2.99 4.34 3.98 4 5 C2.02 4.34 0.04 3.68 -2 3 C-1.34 2.01 -0.68 1.02 0 0 Z " fill="#616060" transform="translate(248,119)"/>
<path d="M0 0 C0.99 0.33 1.98 0.66 3 1 C3.6875 3.0625 3.6875 3.0625 4 5 C2.68 5.33 1.36 5.66 0 6 C0 4.02 0 2.04 0 0 Z " fill="#4D493F" transform="translate(379,226)"/>
<path d="M0 0 C0.66 0.99 1.32 1.98 2 3 C1.01 3.495 1.01 3.495 0 4 C-0.65213292 6.02463255 -0.65213292 6.02463255 -1 8 C-3 5 -3 5 -3 2 C-2.01 1.34 -1.02 0.68 0 0 Z " fill="#615C55" transform="translate(235,225)"/>
<path d="M0 0 C0.66 0 1.32 0 2 0 C1.01 2.97 0.02 5.94 -1 9 C-1.33 9 -1.66 9 -2 9 C-1.125 1.125 -1.125 1.125 0 0 Z " fill="#5F594E" transform="translate(258,218)"/>
<path d="M0 0 C1.485 0.99 1.485 0.99 3 2 C3 2.99 3 3.98 3 5 C1.68 5.33 0.36 5.66 -1 6 C-0.67 4.02 -0.34 2.04 0 0 Z " fill="#D0C9C1" transform="translate(429,212)"/>
<path d="M0 0 C1.98 0 3.96 0 6 0 C6 0.99 6 1.98 6 3 C5.34 2.67 4.68 2.34 4 2 C3.67 2.66 3.34 3.32 3 4 C2.34 4 1.68 4 1 4 C0.67 2.68 0.34 1.36 0 0 Z " fill="#EEEAE4" transform="translate(105,210)"/>
</svg>
