<?xml version="1.0" encoding="UTF-8"?>
<svg version="1.1" xmlns="http://www.w3.org/2000/svg" width="1152" height="896">
<path d="M0 0 C2.80549222 1.14297831 4.28506374 2.29237307 6.4375 4.5 C9.80803143 7.78832335 12.34752652 8.90305172 17.05859375 9.17944336 C18.17363281 9.14987549 19.28867187 9.12030762 20.4375 9.08984375 C21.66210938 9.06986328 22.88671875 9.04988281 24.1484375 9.02929688 C26.71624185 8.96809667 29.28395611 8.90299205 31.8515625 8.83398438 C33.07617188 8.81529297 34.30078125 8.79660156 35.5625 8.77734375 C36.67753906 8.74890381 37.79257812 8.72046387 38.94140625 8.69116211 C42.60665786 9.06125656 44.32113501 9.4287803 47 12 C47.72093543 14.99005584 47.62868359 17.91105477 47.55859375 20.97265625 C47.55509666 22.29093666 47.55509666 22.29093666 47.55152893 23.635849 C47.5417884 25.49276441 47.5199941 27.34964994 47.48706055 29.20629883 C47.43762502 32.05529528 47.42557981 34.90256644 47.41992188 37.75195312 C47.40583716 39.55470595 47.38963322 41.35744373 47.37109375 43.16015625 C47.36573105 44.01537369 47.36036835 44.87059113 47.35484314 45.75172424 C47.23326946 51.76673054 47.23326946 51.76673054 45 54 C42.76086426 54.25396729 42.76086426 54.25396729 39.93945312 54.25878906 C38.35771301 54.26824554 38.35771301 54.26824554 36.74401855 54.27789307 C35.60130493 54.2738446 34.45859131 54.26979614 33.28125 54.265625 C31.52802429 54.26849518 31.52802429 54.26849518 29.73937988 54.27142334 C27.26456487 54.27278626 24.78974274 54.26908241 22.31494141 54.26074219 C18.51578795 54.25004446 14.71710741 54.26063418 10.91796875 54.2734375 C8.51822812 54.27211592 6.11848778 54.26955357 3.71875 54.265625 C2.00467957 54.27169769 2.00467957 54.27169769 0.25598145 54.27789307 C-0.79851196 54.27158875 -1.85300537 54.26528442 -2.93945312 54.25878906 C-3.8705188 54.25719788 -4.80158447 54.25560669 -5.76086426 54.25396729 C-8 54 -8 54 -10 52 C-10.21240485 48.93834936 -10.30395299 45.96948182 -10.30078125 42.90625 C-10.30506638 42.0037854 -10.3093515 41.1013208 -10.31376648 40.17150879 C-10.31951473 38.26164591 -10.32000641 36.35176114 -10.31567383 34.44189453 C-10.31251259 31.51166667 -10.33597099 28.58244676 -10.36132812 25.65234375 C-10.36360085 23.79948045 -10.36430474 21.94661442 -10.36328125 20.09375 C-10.372491 19.21352173 -10.38170074 18.33329346 -10.39118958 17.4263916 C-10.37231445 14.95898438 -10.37231445 14.95898438 -10 11 C-6.77208445 8.8480563 -5.71599191 8.79913557 -2 9 C-1.855625 7.700625 -1.71125 6.40125 -1.5625 5.0625 C-1.125 1.125 -1.125 1.125 0 0 Z " fill="#BFBFBF" transform="translate(518,318)"/>
<path d="M0 0 C0.92607559 -0.0033284 1.85215118 -0.0066568 2.80628967 -0.01008606 C4.76921083 -0.01515933 6.73214065 -0.01749426 8.69506836 -0.01733398 C11.70636136 -0.01951942 14.71728759 -0.03766799 17.72851562 -0.05664062 C19.63150916 -0.05957461 21.53450444 -0.06155937 23.4375 -0.0625 C24.79535866 -0.07327827 24.79535866 -0.07327827 26.1806488 -0.08427429 C27.01814163 -0.08119766 27.85563446 -0.07812103 28.71850586 -0.07495117 C29.45717392 -0.07637619 30.19584198 -0.07780121 30.95689392 -0.07926941 C32.78515625 0.16796875 32.78515625 0.16796875 34.78515625 2.16796875 C34.91015625 5.29296875 34.91015625 5.29296875 34.78515625 8.16796875 C37.75515625 8.49796875 40.72515625 8.82796875 43.78515625 9.16796875 C43.28267553 13.27790247 42.38870687 14.80612762 39.2734375 17.45703125 C33.84248591 23.36379801 34.86024427 31.00720293 34.97265625 38.54296875 C34.97866909 40.75136406 34.97490395 42.95927176 34.96150208 45.16763306 C34.95352124 47.15522397 34.97251667 49.14286888 34.99291992 51.13037109 C34.78515625 54.16796875 34.78515625 54.16796875 32.78515625 56.16796875 C30.95689392 56.41520691 30.95689392 56.41520691 28.71850586 56.41088867 C27.46226662 56.41550362 27.46226662 56.41550362 26.1806488 56.42021179 C24.82279015 56.40943352 24.82279015 56.40943352 23.4375 56.3984375 C22.51046768 56.39797928 21.58343536 56.39752106 20.62831116 56.39704895 C18.66715211 56.39402529 16.7059955 56.3861356 14.74487305 56.3737793 C11.73152223 56.35552247 8.71847847 56.35326957 5.70507812 56.35351562 C3.80338274 56.3486006 1.90168945 56.34277234 0 56.3359375 C-1.360895 56.33426826 -1.360895 56.33426826 -2.74928284 56.33256531 C-9.09879927 56.28401323 -9.09879927 56.28401323 -10.21484375 55.16796875 C-10.31359545 53.4854164 -10.34283279 51.79872847 -10.34423828 50.11328125 C-10.34739044 49.03546387 -10.3505426 47.95764648 -10.35379028 46.84716797 C-10.35176605 45.67428223 -10.34974182 44.50139648 -10.34765625 43.29296875 C-10.34861298 42.09816895 -10.3495697 40.90336914 -10.35055542 39.67236328 C-10.35123746 37.14029895 -10.34938153 34.60823287 -10.34521484 32.07617188 C-10.33986696 28.18485615 -10.34515908 24.29365586 -10.3515625 20.40234375 C-10.35090172 17.94921849 -10.34962057 15.49609331 -10.34765625 13.04296875 C-10.34968048 11.87008301 -10.35170471 10.69719727 -10.35379028 9.48876953 C-10.35063812 8.41095215 -10.34748596 7.33313477 -10.34423828 6.22265625 C-10.34344269 5.26858887 -10.34264709 4.31452148 -10.34182739 3.33154297 C-10.0354822 -1.88803136 -4.00827489 0.00491644 0 0 Z " fill="#7C7D7C" transform="translate(456.21484375,299.83203125)"/>
<path d="M0 0 C0.83426514 -0.00953201 1.66853027 -0.01906403 2.52807617 -0.02888489 C3.43017822 -0.02797348 4.33228027 -0.02706207 5.26171875 -0.02612305 C6.18637939 -0.03040817 7.11104004 -0.0346933 8.0637207 -0.03910828 C10.02066223 -0.04485682 11.97762514 -0.04534799 13.93457031 -0.04101562 C16.93721746 -0.03785443 19.93888095 -0.06131242 22.94140625 -0.08666992 C24.8398425 -0.08894265 26.73828141 -0.08964654 28.63671875 -0.08862305 C29.5388208 -0.09783279 30.44092285 -0.10704254 31.37036133 -0.11653137 C32.62175903 -0.10718819 32.62175903 -0.10718819 33.8984375 -0.09765625 C34.63408936 -0.09828568 35.36974121 -0.0989151 36.12768555 -0.0995636 C37.94921875 0.2746582 37.94921875 0.2746582 39.94921875 3.2746582 C40.20318604 5.47546387 40.20318604 5.47546387 40.20800781 8.06567383 C40.21431213 9.03678101 40.22061646 10.00788818 40.22711182 11.00842285 C40.22306335 12.05534302 40.21901489 13.10226318 40.21484375 14.1809082 C40.21771393 15.79527771 40.21771393 15.79527771 40.22064209 17.44226074 C40.22200358 19.71858962 40.21830967 21.99492626 40.20996094 24.27124023 C40.19926113 27.76083777 40.20985767 31.24992048 40.22265625 34.73950195 C40.22133465 36.94913851 40.21877224 39.15877474 40.21484375 41.3684082 C40.21889221 42.41532837 40.22294067 43.46224854 40.22711182 44.54089355 C40.2208075 45.51200073 40.21450317 46.48310791 40.20800781 47.48364258 C40.20641663 48.33841187 40.20482544 49.19318115 40.20318604 50.07385254 C39.94921875 52.2746582 39.94921875 52.2746582 37.94921875 55.2746582 C36.12768555 55.65560913 36.12768555 55.65560913 33.8984375 55.6628418 C33.06417236 55.67229828 32.22990723 55.68175476 31.37036133 55.6914978 C30.46825928 55.68542511 29.56615723 55.67935242 28.63671875 55.6730957 C27.71205811 55.67596588 26.78739746 55.67883606 25.8347168 55.68179321 C23.87776071 55.6838367 21.92078432 55.67828703 19.96386719 55.66577148 C16.96112582 55.64972185 13.95973054 55.66561057 10.95703125 55.68481445 C9.05859077 55.68283207 7.16015112 55.6789885 5.26171875 55.6730957 C3.90856567 55.68220474 3.90856567 55.68220474 2.52807617 55.6914978 C1.69381104 55.68204132 0.8595459 55.67258484 0 55.6628418 C-0.73565186 55.66045502 -1.47130371 55.65806824 -2.22924805 55.65560913 C-4.05078125 55.2746582 -4.05078125 55.2746582 -6.05078125 52.2746582 C-6.17578125 49.5871582 -6.17578125 49.5871582 -6.05078125 47.2746582 C-10.01078125 46.7796582 -10.01078125 46.7796582 -14.05078125 46.2746582 C-14.79345703 44.47631836 -14.79345703 44.47631836 -15.05078125 42.2746582 C-13.42919922 40.7097168 -13.42919922 40.7097168 -11.16796875 39.0480957 C-7.70597746 35.79710954 -6.52538185 33.42640631 -6.17974854 28.65411377 C-6.07903584 25.06482213 -6.10121418 21.48919003 -6.17578125 17.8996582 C-6.18924991 15.69127951 -6.19155522 13.48340043 -6.18478394 11.2749939 C-6.18365 9.2873212 -6.21238475 7.29969806 -6.24267578 5.31225586 C-5.94845151 0.6548279 -4.27268898 0.02675987 0 0 Z " fill="#A1A1A1" transform="translate(539.05078125,258.725341796875)"/>
<path d="M0 0 C1.51683632 -0.01429802 1.51683632 -0.01429802 3.0643158 -0.02888489 C4.16014481 -0.02797348 5.25597382 -0.02706207 6.38500977 -0.02612305 C7.50706314 -0.03040817 8.62911652 -0.0346933 9.78517151 -0.03910828 C12.16162439 -0.04485945 14.53809488 -0.04534608 16.91455078 -0.04101562 C20.55800315 -0.03785776 24.20064239 -0.06129873 27.84399414 -0.08666992 C30.14933165 -0.08894297 32.45467136 -0.08964639 34.76000977 -0.08862305 C36.40071693 -0.10243767 36.40071693 -0.10243767 38.0745697 -0.11653137 C39.59613426 -0.10718819 39.59613426 -0.10718819 41.1484375 -0.09765625 C42.04175278 -0.09828568 42.93506805 -0.0989151 43.85545349 -0.0995636 C46.13891602 0.2746582 46.13891602 0.2746582 47.92755127 1.55487061 C50.09255908 4.62855555 49.54238398 8.40110333 49.50219727 12.02856445 C49.50294502 13.3135508 49.50294502 13.3135508 49.50370789 14.62449646 C49.5013684 16.43425823 49.49164723 18.24402332 49.47509766 20.05371094 C49.45147583 22.83012836 49.45454108 25.60558753 49.46118164 28.38208008 C49.45560587 30.13924728 49.44849663 31.89641043 49.43969727 33.65356445 C49.44106438 34.90357994 49.44106438 34.90357994 49.44245911 36.17884827 C49.36994948 42.04362474 49.36994948 42.04362474 47.13891602 44.2746582 C45.68485352 44.3365332 45.68485352 44.3365332 44.20141602 44.3996582 C41.06349033 44.91173188 41.06349033 44.91173188 40.08032227 47.11450195 C39.33170022 49.15261652 38.68451115 51.17363833 38.13891602 53.2746582 C36.48891602 52.6146582 34.83891602 51.9546582 33.13891602 51.2746582 C33.13891602 50.6146582 33.13891602 49.9546582 33.13891602 49.2746582 C32.54079102 48.9859082 31.94266602 48.6971582 31.32641602 48.3996582 C29.13891602 47.2746582 29.13891602 47.2746582 26.13891602 45.2746582 C22.75945121 44.92045919 22.75945121 44.92045919 18.88110352 44.89575195 C18.17744659 44.87875748 17.47378967 44.861763 16.74880981 44.84425354 C14.50393604 44.79116899 12.25908066 44.7508348 10.01391602 44.7121582 C7.76170253 44.66826522 5.50963388 44.62162192 3.25759888 44.5693512 C1.21930978 44.52276783 -0.81918146 44.48529874 -2.85766602 44.44824219 C-5.86108398 44.2746582 -5.86108398 44.2746582 -6.86108398 43.2746582 C-6.97465122 40.2682757 -7.0252731 37.28573379 -7.02905273 34.27856445 C-7.03238113 33.37468491 -7.03570953 32.47080536 -7.03913879 31.53953552 C-7.04421194 29.62369294 -7.046547 27.70784148 -7.04638672 25.79199219 C-7.04857211 22.85312402 -7.06672063 19.91463169 -7.08569336 16.97583008 C-7.08862736 15.11840949 -7.09061211 13.26098712 -7.09155273 11.40356445 C-7.09873825 10.52019913 -7.10592377 9.6368338 -7.11332703 8.72669983 C-7.0890036 2.26387386 -6.67911316 0.03447911 0 0 Z " fill="#A2A2A2" transform="translate(467.861083984375,241.725341796875)"/>
<path d="M0 0 C2.97 0 5.94 0 9 0 C10.32 4.29 11.64 8.58 13 13 C14.90389849 10.14415227 15.69462177 8.0688238 16.625 4.8125 C16.88539063 3.91144531 17.14578125 3.01039063 17.4140625 2.08203125 C17.60742188 1.39496094 17.80078125 0.70789063 18 0 C21.3 0 24.6 0 28 0 C29.32 4.62 30.64 9.24 32 14 C33.59035502 10.81928996 34.64848268 8.12342347 35.625 4.75 C35.88539063 3.85796875 36.14578125 2.9659375 36.4140625 2.046875 C36.60742188 1.37140625 36.80078125 0.6959375 37 0 C39.97 0 42.94 0 46 0 C45.43770993 6.28515341 44.37036515 12.06816736 42.625 18.125 C42.41617188 18.88425781 42.20734375 19.64351563 41.9921875 20.42578125 C40.66178148 25.13898793 39.02301602 29.53990036 37 34 C30.9453125 34.1953125 30.9453125 34.1953125 29 34 C26.70311431 31.70311431 26.28148697 30.21071829 25.375 27.125 C25.11460937 26.26132812 24.85421875 25.39765625 24.5859375 24.5078125 C24 22 24 22 24 18 C23.34 18 22.68 18 22 18 C21.896875 18.969375 21.79375 19.93875 21.6875 20.9375 C21.05095782 25.50562625 19.53528795 29.66114276 18 34 C15.03 34 12.06 34 9 34 C6.15826506 27.94957936 4.46651809 21.77746453 2.8125 15.3125 C2.53986328 14.28060547 2.26722656 13.24871094 1.98632812 12.18554688 C0.88951893 7.94949932 0 4.40292896 0 0 Z " fill="#202020" transform="translate(537,395)"/>
<path d="M0 0 C4.19880329 1.43916579 5.83549023 5.48416029 7.9609375 9.15625 C9.2109375 11.7578125 9.2109375 11.7578125 9.2109375 13.7578125 C12.65667112 10.72516391 14.1917005 6.93492359 16.125 2.83984375 C18.65643465 0.31314962 19.45412747 0.4590687 22.921875 0.45703125 C24.3529922 0.53424568 25.78369433 0.62729264 27.2109375 0.7578125 C27.23559038 5.43920504 27.25377489 10.12056009 27.26586914 14.80200195 C27.27090907 16.39575864 27.277741 17.98951069 27.28637695 19.58325195 C27.29845749 21.86931503 27.30416905 24.15531717 27.30859375 26.44140625 C27.31375504 27.15807968 27.31891632 27.87475311 27.32423401 28.61314392 C27.32443013 30.32844922 27.27285757 32.04362516 27.2109375 33.7578125 C26.2109375 34.7578125 26.2109375 34.7578125 22.7109375 34.8828125 C19.2109375 34.7578125 19.2109375 34.7578125 18.2109375 33.7578125 C17.97612057 31.57488476 17.79730427 29.38578076 17.6484375 27.1953125 C17.52275391 25.39900391 17.52275391 25.39900391 17.39453125 23.56640625 C17.33394531 22.63957031 17.27335937 21.71273438 17.2109375 20.7578125 C16.89640625 21.3353125 16.581875 21.9128125 16.2578125 22.5078125 C15.82984375 23.2503125 15.401875 23.9928125 14.9609375 24.7578125 C14.33445312 25.8715625 14.33445312 25.8715625 13.6953125 27.0078125 C13.20546875 27.5853125 12.715625 28.1628125 12.2109375 28.7578125 C10.8909375 28.7578125 9.5709375 28.7578125 8.2109375 28.7578125 C6.7265625 27.0078125 6.7265625 27.0078125 5.4609375 24.7578125 C5.03296875 24.0153125 4.605 23.2728125 4.1640625 22.5078125 C3.84953125 21.9303125 3.535 21.3528125 3.2109375 20.7578125 C3.15035156 21.68464844 3.08976562 22.61148437 3.02734375 23.56640625 C2.94355469 24.76394531 2.85976563 25.96148437 2.7734375 27.1953125 C2.69222656 28.39027344 2.61101562 29.58523438 2.52734375 30.81640625 C2.2109375 33.7578125 2.2109375 33.7578125 1.2109375 34.7578125 C-2.2890625 34.8828125 -2.2890625 34.8828125 -5.7890625 34.7578125 C-7.46579899 33.08107601 -6.91694067 31.02926174 -6.92800903 28.79125977 C-6.9259848 28.09959717 -6.92396057 27.40793457 -6.921875 26.6953125 C-6.92283173 25.98882568 -6.92378845 25.28233887 -6.92477417 24.55444336 C-6.92545583 23.05810457 -6.92360255 21.56176283 -6.91943359 20.06542969 C-6.91408507 17.76751093 -6.91937901 15.46978764 -6.92578125 13.171875 C-6.92512047 11.72135373 -6.9238393 10.27083259 -6.921875 8.8203125 C-6.92389923 8.1286499 -6.92592346 7.4369873 -6.92800903 6.72436523 C-6.89942092 0.94390312 -6.17478481 0.02229164 0 0 Z " fill="#1F2020" transform="translate(351.7890625,394.2421875)"/>
<path d="M0 0 C5.46533473 1.82177824 8.80547956 8.82189661 11.2734375 13.7578125 C11.6034375 9.4678125 11.9334375 5.1778125 12.2734375 0.7578125 C15.2434375 0.7578125 18.2134375 0.7578125 21.2734375 0.7578125 C21.29809038 5.43920504 21.31627489 10.12056009 21.32836914 14.80200195 C21.33340907 16.39575864 21.340241 17.98951069 21.34887695 19.58325195 C21.36095749 21.86931503 21.36666905 24.15531717 21.37109375 26.44140625 C21.37625504 27.15807968 21.38141632 27.87475311 21.38673401 28.61314392 C21.38693013 30.32844922 21.33535757 32.04362516 21.2734375 33.7578125 C20.2734375 34.7578125 20.2734375 34.7578125 17.4609375 35.1328125 C14.2734375 34.7578125 14.2734375 34.7578125 12.2734375 32.8203125 C11.2834375 31.304375 11.2834375 31.304375 10.2734375 29.7578125 C9.75265625 28.98695313 9.231875 28.21609375 8.6953125 27.421875 C7.20333919 25.21180239 5.73227892 22.98983987 4.2734375 20.7578125 C4.21285156 21.68464844 4.15226563 22.61148437 4.08984375 23.56640625 C4.00605469 24.76394531 3.92226563 25.96148437 3.8359375 27.1953125 C3.75472656 28.39027344 3.67351563 29.58523438 3.58984375 30.81640625 C3.2734375 33.7578125 3.2734375 33.7578125 2.2734375 34.7578125 C0.4609375 34.890625 0.4609375 34.890625 -1.7265625 34.8828125 C-2.4484375 34.88539063 -3.1703125 34.88796875 -3.9140625 34.890625 C-5.7265625 34.7578125 -5.7265625 34.7578125 -6.7265625 33.7578125 C-6.8273437 31.39382782 -6.86629465 29.05969939 -6.859375 26.6953125 C-6.86033173 25.98882568 -6.86128845 25.28233887 -6.86227417 24.55444336 C-6.86295583 23.05810457 -6.86110255 21.56176283 -6.85693359 20.06542969 C-6.85158507 17.76751093 -6.85687901 15.46978764 -6.86328125 13.171875 C-6.86262047 11.72135373 -6.8613393 10.27083259 -6.859375 8.8203125 C-6.86139923 8.1286499 -6.86342346 7.4369873 -6.86550903 6.72436523 C-6.83710525 0.98117561 -6.14039083 0.02216748 0 0 Z " fill="#1F1F1F" transform="translate(622.7265625,394.2421875)"/>
<path d="M0 0 C4.91957021 2.64080825 8.16838994 5.99735731 9.9296875 11.28125 C10.46445668 17.25626722 10.44249472 22.1937361 6.9296875 27.28125 C1.78010859 32.03470745 -2.43510825 33.87077346 -9.3984375 33.7265625 C-15.28410694 32.74561759 -19.57331596 29.23188185 -23.1328125 24.59375 C-24.87516451 18.43743958 -25.23737329 12.65859605 -22.3828125 6.84375 C-16.2751556 0.07580586 -9.0463151 -3.14060751 0 0 Z M-13.5703125 10.40625 C-15.34832426 13.81410587 -15.77991463 15.49670532 -15.0703125 19.28125 C-12.61437125 22.60399404 -11.1446481 24.05743008 -7.0703125 24.90625 C-2.96327809 24.05061783 -1.51630137 22.66246991 0.9296875 19.28125 C1.55460273 15.32345351 1.53975589 13.27261114 -0.5703125 9.84375 C-3.60217567 7.94883552 -5.63111706 7.64088308 -9.1640625 7.83203125 C-11.35387763 8.19528308 -11.35387763 8.19528308 -13.5703125 10.40625 Z " fill="#1E1E1E" transform="translate(518.0703125,395.71875)"/>
<path d="M0 0 C2.72977064 -0.08126109 5.4571017 -0.14061663 8.1875 -0.1875 C9.34088867 -0.22520508 9.34088867 -0.22520508 10.51757812 -0.26367188 C16.24703774 -0.33744174 19.46597173 0.72811259 23.8125 4.625 C25.65686232 8.31372464 25.60022284 11.95599859 25 16 C24.00612666 17.33790641 23.0073108 18.67218122 22 20 C22.56031273 22.93638223 22.56031273 22.93638223 24 26 C24.268125 26.64066406 24.53625 27.28132813 24.8125 27.94140625 C25.5241768 29.63506016 26.26012768 31.31847201 27 33 C26 34 26 34 22.1875 34.375 C18.71189899 34.34391233 18.25659198 34.24983956 15.625 31.6875 C15.08875 30.800625 14.5525 29.91375 14 29 C13.34 28.01 12.68 27.02 12 26 C12 25.01 12 24.02 12 23 C11.01 23 10.02 23 9 23 C9.01160156 23.71027344 9.02320313 24.42054688 9.03515625 25.15234375 C9.04869141 26.53099609 9.04869141 26.53099609 9.0625 27.9375 C9.07410156 28.85402344 9.08570313 29.77054687 9.09765625 30.71484375 C9 33 9 33 8 34 C5.32941149 34.14115161 2.67567762 34.04247107 0 34 C-1.19908346 30.30181667 -1.02614574 26.9078215 -0.87890625 23.046875 C-0.85529526 22.38665344 -0.83168427 21.72643188 -0.80735779 21.04620361 C-0.7310719 18.947231 -0.64689847 16.84866051 -0.5625 14.75 C-0.5092441 13.32293603 -0.45650396 11.89585272 -0.40429688 10.46875 C-0.27550501 6.97892267 -0.13963981 3.48941202 0 0 Z M9 9 C9 10.98 9 12.96 9 15 C12.465 14.505 12.465 14.505 16 14 C16.33 13.01 16.66 12.02 17 11 C16.67 10.34 16.34 9.68 16 9 C13.69 9 11.38 9 9 9 Z " fill="#1F2020" transform="translate(458,395)"/>
<path d="M0 0 C2.9048333 1.6227427 6.03105426 3.41572201 7.89453125 6.2109375 C7.58203125 8.3984375 7.58203125 8.3984375 6.89453125 10.2109375 C4.58453125 10.8709375 2.27453125 11.5309375 -0.10546875 12.2109375 C-0.43546875 11.7159375 -0.76546875 11.2209375 -1.10546875 10.7109375 C-3.82493208 8.67134001 -5.89613865 8.72230773 -9.23046875 8.86328125 C-11.28109169 9.08881859 -11.28109169 9.08881859 -13.10546875 10.8359375 C-14.3704563 13.84028294 -14.44933317 15.97861192 -14.10546875 19.2109375 C-12.3697213 22.53258355 -12.3697213 22.53258355 -8.79296875 23.0859375 C-4.61192831 23.22766768 -3.54924576 22.33018489 -0.10546875 20.2109375 C3.08203125 20.2734375 3.08203125 20.2734375 5.89453125 21.2109375 C7.26953125 23.2734375 7.26953125 23.2734375 7.89453125 25.2109375 C4.8333215 29.74152792 2.10320424 31.56152439 -3.10546875 33.2109375 C-9.41919222 33.91246233 -13.89702002 32.93125802 -19.10546875 29.2109375 C-22.43496653 26.31677357 -23.88317044 23.67653258 -24.546875 19.30078125 C-24.78320625 13.1485452 -24.44434084 8.90161003 -20.10546875 4.2109375 C-14.42795112 -0.91267597 -7.39785634 -2.77248049 0 0 Z " fill="#202020" transform="translate(438.10546875,395.7890625)"/>
<path d="M0 0 C2.5625 2.4375 2.5625 2.4375 4 5 C4 5.99 4 6.98 4 8 C0.535 9.485 0.535 9.485 -3 11 C-3.66 10.34 -4.32 9.68 -5 9 C-6.32 9 -7.64 9 -9 9 C-8.15695312 9.39832031 -7.31390625 9.79664063 -6.4453125 10.20703125 C-4.80175781 11.00173828 -4.80175781 11.00173828 -3.125 11.8125 C-2.03445313 12.33457031 -0.94390625 12.85664063 0.1796875 13.39453125 C3 15 3 15 5 18 C5.5454104 21.06578057 5.53808365 23.9329232 5 27 C2.47031526 30.28175318 0.92268669 31.69243777 -3 33 C-7.63598379 33.54805235 -11.76689191 33.48280795 -16 31.375 C-19 29 -19 29 -19.9375 25.75 C-19.958125 24.8425 -19.97875 23.935 -20 23 C-17.75 21.375 -17.75 21.375 -15 20 C-13.0625 20.75 -13.0625 20.75 -11 22 C-9.00889599 22.38290462 -7.00899487 22.72604615 -5 23 C-7.86484744 19.75747171 -10.98621959 18.62119425 -14.94140625 17.0625 C-17 16 -17 16 -19 13 C-19.60143397 9.91186786 -19.62790328 7.0853868 -19 4 C-14.08512829 -2.79784203 -7.17207124 -2.69775157 0 0 Z " fill="#222221" transform="translate(676,396)"/>
<path d="M0 0 C1.23556641 0.01740234 1.23556641 0.01740234 2.49609375 0.03515625 C3.32238281 0.04417969 4.14867187 0.05320312 5 0.0625 C5.63808594 0.07410156 6.27617188 0.08570313 6.93359375 0.09765625 C6.95824663 4.77904879 6.97643114 9.46040384 6.98852539 14.1418457 C6.99356532 15.73560239 7.00039725 17.32935444 7.0090332 18.9230957 C7.02111374 21.20915878 7.0268253 23.49516092 7.03125 25.78125 C7.03641129 26.49792343 7.04157257 27.21459686 7.04689026 27.95298767 C7.04708638 29.66829297 6.99551382 31.38346891 6.93359375 33.09765625 C5.93359375 34.09765625 5.93359375 34.09765625 4.12109375 34.23046875 C3.39921875 34.22789062 2.67734375 34.2253125 1.93359375 34.22265625 C1.21171875 34.22523438 0.48984375 34.2278125 -0.25390625 34.23046875 C-2.06640625 34.09765625 -2.06640625 34.09765625 -3.06640625 33.09765625 C-3.16718745 30.73367157 -3.2061384 28.39954314 -3.19921875 26.03515625 C-3.20017548 25.32866943 -3.2011322 24.62218262 -3.20211792 23.89428711 C-3.20279958 22.39794832 -3.2009463 20.90160658 -3.19677734 19.40527344 C-3.19142882 17.10735468 -3.19672276 14.80963139 -3.203125 12.51171875 C-3.20246422 11.06119748 -3.20118305 9.61067634 -3.19921875 8.16015625 C-3.20124298 7.46849365 -3.20326721 6.77683105 -3.20535278 6.06420898 C-3.1761037 0.15009942 -3.1761037 0.15009942 0 0 Z " fill="#1A1B1B" transform="translate(596.06640625,394.90234375)"/>
<path d="M0 0 C6.15234375 -0.09765625 6.15234375 -0.09765625 8 0 C9.67673649 1.67673649 9.12787817 3.72855076 9.13894653 5.96655273 C9.1369223 6.65821533 9.13489807 7.34987793 9.1328125 8.0625 C9.13376923 8.76898682 9.13472595 9.47547363 9.13571167 10.20336914 C9.13639333 11.69970793 9.13454005 13.19604967 9.13037109 14.69238281 C9.12502257 16.99030157 9.13031651 19.28802486 9.13671875 21.5859375 C9.13605797 23.03645877 9.1347768 24.48697991 9.1328125 25.9375 C9.13483673 26.6291626 9.13686096 27.3208252 9.13894653 28.03344727 C9.11495224 32.88504776 9.11495224 32.88504776 8 34 C4.5 34.125 4.5 34.125 1 34 C0 33 0 33 -0.11352539 29.85717773 C-0.11336633 28.46597303 -0.10767506 27.07476239 -0.09765625 25.68359375 C-0.0962413 24.95253922 -0.09482635 24.22148468 -0.09336853 23.46827698 C-0.08775408 21.12464368 -0.07519922 18.78110461 -0.0625 16.4375 C-0.05748686 14.85221492 -0.05292363 13.26692834 -0.04882812 11.68164062 C-0.03777997 7.7877239 -0.02050572 3.89387795 0 0 Z " fill="#1D1C1D" transform="translate(393,395)"/>
<path d="M0 0 C0.33 0 0.66 0 1 0 C1.04934926 5.65998046 1.08569529 11.31983636 1.10986328 16.97998047 C1.11993582 18.90643494 1.13359443 20.83287408 1.15087891 22.75927734 C1.17507241 25.52445252 1.18647036 28.289426 1.1953125 31.0546875 C1.20563507 31.9193161 1.21595764 32.7839447 1.22659302 33.67477417 C1.22699106 35.78453521 1.12265243 37.89380718 1 40 C-1.5569742 42.5569742 -2.5111207 42.25709382 -6.06054688 42.2746582 C-7.11504028 42.28419022 -8.16953369 42.29372223 -9.25598145 42.30354309 C-10.97005188 42.30217598 -10.97005188 42.30217598 -12.71875 42.30078125 C-14.47197571 42.30720894 -14.47197571 42.30720894 -16.26062012 42.31376648 C-18.73542634 42.31951757 -21.21024948 42.32000434 -23.68505859 42.31567383 C-27.48434077 42.31251303 -31.28284541 42.33596739 -35.08203125 42.36132812 C-37.48176985 42.36360083 -39.88151055 42.36430475 -42.28125 42.36328125 C-43.42396362 42.372491 -44.56667725 42.38170074 -45.74401855 42.39118958 C-47.32575867 42.38184639 -47.32575867 42.38184639 -48.93945312 42.37231445 C-50.33605164 42.37325859 -50.33605164 42.37325859 -51.76086426 42.3742218 C-52.49977905 42.25072861 -53.23869385 42.12723541 -54 42 C-54.66 41.01 -55.32 40.02 -56 39 C-53.32384087 39 -50.65331907 39.03894678 -47.9777832 39.09179688 C-46.95695145 39.11181763 -45.93611969 39.13183838 -44.88435364 39.15246582 C-43.23423531 39.18527649 -43.23423531 39.18527649 -41.55078125 39.21875 C-40.4230278 39.24094604 -39.29527435 39.26314209 -38.13334656 39.28601074 C-34.52639221 39.35706497 -30.91944609 39.42852783 -27.3125 39.5 C-24.86914116 39.54820397 -22.42578179 39.59638139 -19.98242188 39.64453125 C-13.98827513 39.7627126 -7.9941351 39.88122958 -2 40 C-1.96241577 38.23571655 -1.96241577 38.23571655 -1.92407227 36.43579102 C-1.83017194 32.08785378 -1.72990952 27.74008284 -1.62768555 23.39233398 C-1.58427067 21.50760782 -1.54260057 19.62284064 -1.50268555 17.73803711 C-1.44514107 15.03486751 -1.38140196 12.33190564 -1.31640625 9.62890625 C-1.29969376 8.78099014 -1.28298126 7.93307404 -1.26576233 7.0594635 C-1.11387171 1.11387171 -1.11387171 1.11387171 0 0 Z " fill="#7A7A7A" transform="translate(564,330)"/>
<path d="M0 0 C0.598125 0.20625 1.19625 0.4125 1.8125 0.625 C-1.1875 2.625 -1.1875 2.625 -3.1875 2.625 C-3.18226318 3.48665771 -3.17702637 4.34831543 -3.17163086 5.23608398 C-3.15445396 8.4733861 -3.14198469 11.71066476 -3.13256836 14.94799805 C-3.12758043 16.34156057 -3.12078769 17.73511798 -3.11206055 19.12866211 C-3.06591205 26.69430078 -3.13191542 34.11954426 -4.1875 41.625 C-4.5175 41.625 -4.8475 41.625 -5.1875 41.625 C-5.26152368 35.96503584 -5.31604173 30.30535189 -5.35229492 24.64501953 C-5.36740395 22.71853733 -5.38789214 20.79208965 -5.41381836 18.86572266 C-5.45010925 16.10049943 -5.46720479 13.33572996 -5.48046875 10.5703125 C-5.49595261 9.7056839 -5.51143646 8.8410553 -5.52738953 7.95022583 C-5.52807617 5.52392578 -5.52807617 5.52392578 -5.1875 1.625 C-2.1875 -0.375 -2.1875 -0.375 0 0 Z " fill="#B1AFB0" transform="translate(513.1875,327.375)"/>
<path d="M0 0 C0.99 0 1.98 0 3 0 C3 0.99 3 1.98 3 3 C2.34 3 1.68 3 1 3 C0.67 3.99 0.34 4.98 0 6 C-0.65129797 7.34090759 -1.31513275 8.67592331 -2 10 C-2.1953125 3.9453125 -2.1953125 3.9453125 -2 2 C-1.34 1.34 -0.68 0.68 0 0 Z " fill="#767070" transform="translate(535,259)"/>
<path d="M0 0 C0.598125 0.20625 1.19625 0.4125 1.8125 0.625 C-1.1875 2.625 -1.1875 2.625 -3.1875 2.625 C-3.5175 5.595 -3.8475 8.565 -4.1875 11.625 C-4.5175 11.625 -4.8475 11.625 -5.1875 11.625 C-5.26840971 10.00081255 -5.32664995 8.37548255 -5.375 6.75 C-5.40980469 5.84507812 -5.44460938 4.94015625 -5.48046875 4.0078125 C-5.38378906 3.22148437 -5.28710938 2.43515625 -5.1875 1.625 C-2.1875 -0.375 -2.1875 -0.375 0 0 Z " fill="#888785" transform="translate(513.1875,327.375)"/>
</svg>
